<?xml version="1.0" standalone="no"?>
<!DOCTYPE svg PUBLIC "-//W3C//DTD SVG 1.1//EN" "http://www.w3.org/Graphics/SVG/1.1/DTD/svg11.dtd" >
<!--
2013-9-30: Created.
-->
<svg>
<metadata>
Created by iconfont
</metadata>
<defs>

<font id="iconfont" horiz-adv-x="1024" >
  <font-face
    font-family="iconfont"
    font-weight="500"
    font-stretch="normal"
    units-per-em="1024"
    ascent="896"
    descent="-128"
  />
    <missing-glyph />
    
    <glyph glyph-name="cart-copy" unicode="&#58880;" d="M920.174 143.784h-578.406c-54.823 0-68.478 30.108-71.748 48.050l-5.657 31.707c-59.285 332.778-93.137 517.771-100.628 549.846-6.563 25.445-17.302 34.692-25.124 34.692h-114.329c-12.507 0-22.627 10.131-22.627 22.627s10.12 22.626 22.627 22.626h114.329c12.022 0 52.547-4.982 69.074-69.152 11.689-50.015 79.084-428.368 101.225-552.707l5.613-31.521c0.553-2.994 1.988-10.917 27.246-10.917h578.405c12.506 0 22.626-10.13 22.626-22.626 0-12.495-10.122-22.626-22.626-22.626zM854.191 326.922h-584.503c-12.507 0-22.627 10.132-22.627 22.627s10.12 22.626 22.627 22.626h584.503c40.261 0 48.415 31.4 48.724 32.737 2.453 9.103 56.943 212.505 71.969 263.129 1.767 5.944 3.204 14.087 0.021 18.993-3.292 5.038-11.27 7.447-14.916 8.132h-762.161c-12.507 0-22.626 10.131-22.626 22.627s10.12 22.626 22.626 22.626h763.842c0.795 0 1.592-0.044 2.387-0.122 3.269-0.353 32.393-4.066 48.414-28.030 7.182-10.75 14.009-29.377 5.812-57.086-14.872-50.060-70.954-259.395-71.527-261.505-5.57-22.782-32.264-66.754-92.566-66.754zM388.48-106.395c-51.795 0-93.933 42.127-93.933 93.911s42.139 93.911 93.933 93.911c51.772 0 93.889-42.127 93.889-93.911s-42.117-93.911-93.889-93.911zM388.48 36.173c-26.847 0-48.679-21.831-48.679-48.656 0-26.826 21.831-48.658 48.679-48.658 26.826 0 48.635 21.832 48.635 48.658 0 26.825-21.809 48.656-48.635 48.656zM810.088-106.395c-51.774 0-93.911 42.127-93.911 93.911s42.138 93.911 93.911 93.911c51.772 0 93.911-42.127 93.911-93.911s-42.14-93.911-93.911-93.911zM810.088 36.173c-26.826 0-48.658-21.831-48.658-48.656 0-26.826 21.832-48.658 48.658-48.658 26.825 0 48.656 21.832 48.656 48.658 0 26.825-21.831 48.656-48.656 48.656z"  horiz-adv-x="1024" />

    
    <glyph glyph-name="yanjing" unicode="&#58977;" d="M515.2 672c-307.2 0-492.8-313.6-492.8-313.6s214.4-304 492.8-304 492.8 304 492.8 304S822.4 672 515.2 672zM832 243.2c-102.4-86.4-211.2-140.8-320-140.8s-217.6 51.2-320 140.8c-35.2 32-70.4 64-99.2 99.2-6.4 6.4-9.6 12.8-16 19.2 3.2 6.4 9.6 12.8 12.8 19.2 25.6 35.2 57.6 70.4 92.8 102.4 99.2 89.6 208 144 329.6 144s230.4-54.4 329.6-144c35.2-32 64-67.2 92.8-102.4 3.2-6.4 9.6-12.8 12.8-19.2-3.2-6.4-9.6-12.8-16-19.2C902.4 310.4 870.4 275.2 832 243.2zM512 550.4c-96 0-169.6-76.8-169.6-169.6 0-96 76.8-169.6 169.6-169.6 96 0 169.6 76.8 169.6 169.6C681.6 473.6 604.8 550.4 512 550.4zM512 256c-67.2 0-121.6 54.4-121.6 121.6 0 67.2 54.4 121.6 121.6 121.6 67.2 0 121.6-54.4 121.6-121.6C633.6 313.6 579.2 256 512 256z"  horiz-adv-x="1024" />

    
    <glyph glyph-name="gouwuche" unicode="&#58882;" d="M1012.920568 426.440732c-15.332419-43.758169-43.523597-85.298574-85.298574-85.298574L294.493327 341.142158 309.207331 234.51894c3.326644-23.542406 19.085556-42.649287 42.649287-42.649287l618.414663 0 0-42.649287L330.531975 149.220366c-35.334934 0-57.960381 27.956608-63.973931 63.973931L181.25947 852.933603 10.662322 852.933603 10.662322 895.58289c0 0 131.317155 0.938284 170.597148 0 27.977932-0.661064 42.649287-42.649287 42.649287-42.649287l11.771203-85.298574L1012.920568 767.635029c59.090587 0 86.620702-24.864534 85.298574-85.298574L1012.920568 426.440732zM1012.920568 724.985742 351.856618 724.985742l-85.298574 0-24.992482 0 47.042164-341.194297L309.207331 383.791445l0 0 597.090019 0c36.550439 0 51.904182 10.79027 63.973931 42.649287l85.298574 234.571079C1063.438649 705.729589 1043.308185 724.985742 1012.920568 724.985742zM426.492871 106.571079c64.784267 0 117.285539-52.501272 117.285539-117.285539S491.277138-128 426.492871-128 309.207331-75.498728 309.207331-10.714461 361.708604 106.571079 426.492871 106.571079zM426.492871-85.350713c41.220536 0 74.636252 33.394392 74.636252 74.636252S467.713407 63.921792 426.492871 63.921792 351.856618 30.5274 351.856618-10.714461 385.272335-85.350713 426.492871-85.350713zM874.310385 106.571079c64.784267 0 117.285539-52.501272 117.285539-117.285539S939.094652-128 874.310385-128 757.024846-75.498728 757.024846-10.714461 809.526118 106.571079 874.310385 106.571079zM874.310385-85.350713c41.241861 0 74.636252 33.394392 74.636252 74.636252S915.552246 63.921792 874.310385 63.921792 799.674133 30.5274 799.674133-10.714461 833.068525-85.350713 874.310385-85.350713z"  horiz-adv-x="1109" />

    
    <glyph glyph-name="shouhuodizhi" unicode="&#58933;" d="M1824.267524 762.320257C1762.037299 823.562701 1676.100322 861.427653 1581.108682 861.427653c-94.99164 0-180.928617-37.864952-243.158842-99.107395-62.230225-61.242444-100.753698-145.862379-100.753698-239.207717 0-50.047588 11.688746-96.967203 31.938264-139.441801 21.89582-45.931833 53.504823-86.430868 91.040514-119.850804l203.318328-181.751768 17.450804-15.639871 17.450804 15.639871 203.153698 181.587138c37.535691 33.584566 69.309325 74.083601 91.040514 120.015434 20.249518 42.474598 31.938264 89.394212 31.938264 139.441801C1925.021222 616.457878 1886.497749 701.077814 1824.267524 762.320257L1824.267524 762.320257zM1845.998714 405.237299c-18.767846-39.346624-46.261093-74.412862-79.022508-103.717042L1581.108682 135.57299 1395.241158 301.520257c-32.761415 29.30418-60.254662 64.370418-79.022508 103.717042-16.956913 35.724759-26.834727 75.400643-26.834727 117.875241 0 79.187138 32.596785 151.130547 85.443087 202.989068 52.846302 52.023151 125.777492 84.126045 206.281672 84.126045 80.50418 0 153.43537-32.102894 206.281672-84.126045 52.846302-51.858521 85.443087-123.637299 85.443087-202.989068C1872.833441 480.637942 1862.955627 440.962058 1845.998714 405.237299L1845.998714 405.237299zM1864.601929 157.633441c-9.219293 9.877814-24.365273 11.194855-35.066238 2.963344-5.268167-3.951125-8.560772-9.548553-9.713183-16.298392-1.317042-7.902251 0.987781-15.310611 6.420579-21.237299 13.170418-14.32283 20.578778-29.633441 20.578778-45.273312 0-30.291961-27.163987-59.266881-71.284887-81.491961-49.224437-24.859164-118.039871-40.334405-194.428296-40.334405-76.553055 0-145.203859 15.475241-194.428296 40.334405C1342.724116 18.5209 1315.395498 47.33119 1315.395498 77.787781c0 15.804502 7.40836 31.115113 20.578778 45.273312 5.432797 5.926688 7.737621 13.335048 6.420579 21.237299-0.987781 6.749839-4.445016 12.347267-9.713183 16.298392-10.865595 8.066881-25.846945 6.749839-35.066238-3.127974-22.06045-23.706752-34.407717-50.706109-34.407717-79.845659 0-51.03537 38.029582-95.979421 99.765916-127.094534 56.303537-28.481029 133.515113-46.096463 218.135048-46.096463 84.619936 0 161.831511 17.615434 218.135048 46.096463 61.571704 31.115113 99.765916 75.894534 99.765916 127.094534C1899.009646 106.762701 1886.497749 133.926688 1864.601929 157.633441L1864.601929 157.633441 1864.601929 157.633441zM1676.594212 587.318328 1676.594212 587.318328c-24.365273 24.036013-58.114469 39.017363-95.485531 39.017363-37.206431 0-71.120257-14.81672-95.485531-39.017363l0 0c-24.529904-24.036013-39.675884-57.291318-39.675884-94.003859 0-36.71254 15.145981-69.967846 39.675884-94.003859 24.365273-24.036013 58.2791-39.017363 95.485531-39.017363 37.371061 0 71.120257 14.81672 95.485531 39.017363 24.365273 24.036013 39.511254 57.291318 39.511254 94.003859C1716.270096 530.02701 1701.124116 563.282315 1676.594212 587.318328L1676.594212 587.318328zM1639.717042 435.693891c-14.98135-14.81672-35.724759-23.871383-58.60836-23.871383-22.883601 0-43.62701 9.219293-58.77299 23.871383-14.98135 14.81672-24.365273 35.230868-24.365273 57.785209 0 22.554341 9.219293 42.968489 24.200643 57.785209l0.16463 0c14.98135 14.81672 35.889389 23.871383 58.77299 23.871383 22.883601 0 43.62701-9.219293 58.60836-23.871383l0.16463 0c14.98135-14.65209 24.200643-35.066238 24.200643-57.785209C1664.082315 470.760129 1654.863023 450.345981 1639.717042 435.693891L1639.717042 435.693891zM1639.717042 435.693891"  horiz-adv-x="3161" />

    
    <glyph glyph-name="daipingjia" unicode="&#59023;" d="M512.967024 172.422234c-12.101619 0-23.49204 4.592598-32.103162 12.928451L313.985134 346.879568c-27.166733 26.087145-42.138726 60.877509-42.138726 97.964172s14.995529 71.923076 42.230824 98.078783c27.051099 25.972535 62.9671 40.255843 101.109816 40.255843 36.673248 0 68.225871-13.158694 96.471169-40.255843l0.734734-0.849344 1.906419 1.836835c27.556613 26.431999 59.109236 39.268352 96.471169 39.268352 38.142715 0 74.036203-14.283308 101.087303-40.23333l0 0c27.64871-26.454512 42.253336-60.371996 42.253336-98.102319 0-37.110199-14.995529-71.923076-42.207287-98.032734L545.07121 185.328171C536.482601 177.015855 525.09218 172.422234 512.967024 172.422234zM415.187047 547.906024c-29.003568 0-56.238862-10.816347-76.676333-30.426987-20.2543-19.427468-31.391964-45.239344-31.391964-72.635297s11.137665-53.16178 31.345915-72.565712l166.948313-161.597445c3.903913-3.811816 11.252275-3.789303 15.110139-0.022513l166.902264 161.551396c20.276812 19.449981 31.414477 45.239344 31.414477 72.635297 0 27.877931-10.838859 52.977585-31.368428 72.611761l-0.022513 0.022513c-20.437471 19.611663-47.672766 30.426987-76.676333 30.426987-28.222785 0-51.117215-9.345856-72.037686-29.439496l-25.328875-30.817889-26.546609 30.151717C465.340307 538.329924 442.560488 547.906024 415.187047 547.906024zM511.336898-66.241424c-59.017138 0-118.011764 11.780301-174.066431 35.272341C226.400357 15.533021 140.262534 102.42809 94.747921 213.711616 0.802272 443.442834 111.258966 706.771241 340.967672 800.739403c229.731218 93.945649 493.058602-16.488533 587.027787-246.196215 28.016077-68.524676 38.808888-143.386688 31.207769-216.503962-0.98749-9.713222-9.644661-16.8559-19.358907-15.730263-9.69071 1.010003-16.740266 9.668197-15.730263 19.358907 7.003508 67.376527-2.938935 136.359644-28.774347 199.51094-41.955554 102.556771-121.318066 182.65504-223.508493 225.505987-102.21294 42.87346-214.965933 43.332924-317.499168 1.400906C142.604882 681.487392 40.805358 438.781674 127.402645 227.077018c41.955554-102.556771 121.318066-182.65504 223.508493-225.505987 102.21294-42.87346 214.965933-43.332924 317.499168-1.400906 9.002025 3.651157 19.312858-0.642636 23.010063-9.644661 3.674693-9.024537-0.642636-19.312858-9.644661-23.010063C626.753557-54.989149 569.022715-66.241424 511.336898-66.241424zM830.581826 69.865463c-0.229221 0-0.459464 0-0.688685 0.022513-9.736758 0.367367-17.337877 8.54256-16.946974 18.279319l4.455475 116.610858c0.344854 9.759271 8.243755 17.888416 18.279319 16.946974 9.736758-0.367367 17.337877-8.54256 16.946974-18.279319l-4.455475-116.610858C847.827605 77.328435 839.997266 69.865463 830.581826 69.865463zM947.192683 65.411011c-0.229221 0-0.459464 0-0.688685 0.022513l-116.610858 4.455475c-9.736758 0.367367-17.337877 8.54256-16.946974 18.279319 0.344854 9.736758 7.876388 17.797341 18.279319 16.946974l116.610858-4.455475c9.736758-0.367367 17.337877-8.54256 16.946974-18.279319C964.438463 72.873983 956.608124 65.411011 947.192683 65.411011z"  horiz-adv-x="1024" />

    
    <glyph glyph-name="weixin" unicode="&#58906;" d="M498.816 550.944c26.336 0 43.936 17.632 43.936 43.904 0 26.56-17.568 43.744-43.936 43.744s-52.832-17.184-52.832-43.744C446.016 568.576 472.48 550.944 498.816 550.944zM253.088 638.592c-26.336 0-52.96-17.184-52.96-43.744 0-26.272 26.624-43.904 52.96-43.904 26.24 0 43.808 17.632 43.808 43.904C296.864 621.408 279.328 638.592 253.088 638.592zM1024 269.888c0 138.88-128.832 257.216-286.976 269.536 0.224 1.728 0.32 3.52-0.064 5.312-31.712 147.84-190.688 259.296-369.824 259.296C164.704 804.032 0 662.88 0 489.376c0-93.088 47.52-176.96 137.568-243.104l-31.392-94.368c-2.016-6.144-0.192-12.896 4.704-17.152 2.976-2.56 6.72-3.904 10.496-3.904 2.432 0 4.896 0.576 7.168 1.696L246.4 191.52l14.528-2.944c36.288-7.456 67.616-13.92 106.208-13.92 11.36 0 22.88 0.512 34.176 1.472 4.576 0.384 8.448 2.688 11.072 6.016 42.496-106.336 159.616-183.104 297.44-183.104 35.296 0 71.04 8.512 103.104 16.544l90.848-49.664c2.4-1.312 5.056-1.984 7.68-1.984 3.584 0 7.168 1.216 10.048 3.552 5.056 4.096 7.136 10.848 5.248 17.024l-23.2 77.152C981.344 123.136 1024 196.672 1024 269.888zM398.592 208.032c-10.4-0.896-20.96-1.344-31.424-1.344-35.328 0-65.216 6.112-99.776 13.248L247.296 224c-3.456 0.736-7.104 0.256-10.272-1.376l-88.288-44.192 22.944 68.928c2.24 6.752-0.224 14.112-6.016 18.176C76.96 327.36 32 402.688 32 489.376c0 155.84 150.336 282.656 335.136 282.656 163.36 0 308-99.392 337.856-231.584-171.296-2.24-309.888-122.656-309.888-270.56 0-21.504 3.264-42.336 8.768-62.432C402.208 207.872 400.448 208.192 398.592 208.032zM875.456 80.448c-5.344-4.032-7.616-10.976-5.696-17.376l15.136-50.336-62.112 33.984c-2.368 1.312-5.024 1.984-7.68 1.984-1.312 0-2.624-0.16-3.904-0.512-33.312-8.416-67.776-17.088-101.344-17.088-155.904 0-282.72 107.136-282.72 238.816 0 131.68 126.816 238.784 282.72 238.784 152.928 0 282.144-109.344 282.144-238.784C992 204.256 950.624 136.96 875.456 80.448zM612.992 384.032c-17.568 0-35.136-17.696-35.136-35.232 0-17.664 17.568-35.104 35.136-35.104 26.4 0 43.84 17.44 43.84 35.104C656.832 366.368 639.392 384.032 612.992 384.032zM806.016 384.032c-17.312 0-34.88-17.696-34.88-35.232 0-17.664 17.568-35.104 34.88-35.104 26.304 0 44.064 17.44 44.064 35.104C850.08 366.368 832.352 384.032 806.016 384.032z"  horiz-adv-x="1025" />

    
    <glyph glyph-name="chanpinzhongxin" unicode="&#58889;" d="M394.24 340.416l-208 0c-41.088 0-74.304-33.344-74.304-74.24l0-207.872c0-41.024 33.344-74.304 74.304-74.304l208.128 0c19.904 0 38.464 7.68 52.48 21.76 14.016 14.016 21.696 32.64 21.568 52.544L468.416 266.176C468.48 307.2 435.264 340.416 394.24 340.416L394.24 340.416zM407.744 57.984c0-3.584-1.344-6.656-3.904-9.536-1.472-1.408-4.608-3.84-9.344-3.84L186.304 44.608c-7.424 0-13.504 6.016-13.504 13.44L172.8 266.176c0 7.36 6.08 13.504 13.504 13.504l207.872 0c7.424 0 13.504-6.144 13.504-13.504L407.744 57.984 407.744 57.984 407.744 57.984zM394.24 784l-208 0c-40.96 0-74.304-33.344-74.304-74.304l0-207.872c0-41.024 33.344-74.24 74.304-74.24l208.128 0c19.904 0 38.464 7.68 52.48 21.632C460.928 463.36 468.608 482.048 468.48 501.824L468.48 709.696C468.48 750.656 435.264 784 394.24 784L394.24 784zM407.744 501.568c0-3.584-1.344-6.72-3.904-9.6-1.472-1.408-4.608-3.84-9.344-3.84L186.304 488.128C178.88 488.192 172.8 494.272 172.8 501.696l0 208C172.8 717.12 178.88 723.2 186.304 723.2l207.872 0c7.424 0 13.504-6.08 13.504-13.504L407.744 501.568 407.744 501.568 407.744 501.568zM837.824 340.416l-208 0c-41.024 0-74.24-33.344-74.24-74.24l0-207.872c0-41.024 33.28-74.304 74.24-74.304l208.128 0c19.904 0 38.4 7.68 52.416 21.76 14.016 14.016 21.696 32.64 21.632 52.544L912 266.176C912.064 307.2 878.656 340.416 837.824 340.416L837.824 340.416zM851.2 57.984c0-3.584-1.344-6.656-3.904-9.536-1.408-1.408-4.672-3.84-9.344-3.84L629.824 44.608c-7.36 0-13.504 6.016-13.504 13.44L616.32 266.176c0 7.36 6.144 13.504 13.504 13.504l207.872 0c7.488 0 13.504-6.144 13.504-13.504L851.2 57.984 851.2 57.984zM837.824 784l-208 0c-41.024 0-74.24-33.344-74.24-74.304l0-207.872c0-41.024 33.28-74.24 74.24-74.24l208.128 0c19.904 0 38.4 7.68 52.416 21.632 14.016 14.08 21.696 32.768 21.632 52.608L912 709.696C912.064 750.656 878.656 784 837.824 784L837.824 784zM851.2 501.568c0-3.584-1.344-6.72-3.904-9.6-1.408-1.408-4.672-3.84-9.344-3.84L629.824 488.128c-7.36 0-13.504 6.08-13.504 13.504l0 208C616.32 717.12 622.464 723.2 629.824 723.2l207.872 0c7.488 0 13.504-6.08 13.504-13.504L851.2 501.568 851.2 501.568z"  horiz-adv-x="1024" />

    
    <glyph glyph-name="radio-copy" unicode="&#58978;" d="M511.677 832.061c-247.277 0-447.735-200.462-447.735-447.738 0-247.28 200.459-447.74 447.735-447.74 247.282 0 447.741 200.46 447.741 447.74 0 247.277-200.46 447.738-447.741 447.738zM415.314 164.426l-52.449 52.446-0.348-0.345-140.711 140.709 52.769 52.766 140.394-140.39 333.985 333.986 52.767-52.769-386.407-386.402z"  horiz-adv-x="1024" />

    
    <glyph glyph-name="weixin1" unicode="&#58959;" d="M499.057025 548.04468c27.691946 0 45.751911 18.661964 45.751911 45.751911 0 27.089947-18.661964 45.751911-45.751911 45.751911-26.487948 0-54.781893-17.457966-54.781893-45.751911C444.275132 566.104644 472.569077 548.04468 499.057025 548.04468zM299.795414 594.398589c0 27.089947-18.661964 45.751911-45.751911 45.751911-26.487948 0-54.781893-17.457966-54.781893-45.751911 0-28.293945 28.293945-45.751911 54.781893-45.751911C281.73545 548.04468 299.795414 566.706643 299.795414 594.398589zM1024 270.523222c0 67.423868-30.099941 132.439741-84.279835 183.007643-53.577895 49.965902-125.215755 80.667842-201.067607 87.28983 0 1.203998 0 2.407995 0 3.611993-31.905938 148.091711-190.833627 260.063492-370.229277 260.063492C164.947678 804.496179 0 663.026455 0 489.048795 0 396.340976 46.955908 312.061141 136.653733 246.443269l-30.70194-92.707819c-2.407995-7.223986 0-14.447972 5.417989-19.263962 5.417989-4.815991 13.845973-5.417989 19.865961-2.407995l116.787772 58.393886 13.845973-3.009994 0.601999 0c36.119929-7.223986 67.423868-13.845973 105.951793-13.845973 7.223986 0 34.915932 2.407995 43.945914 6.621987 44.547913-108.359788 163.74368-181.201646 297.387419-181.201646 33.711934 0 68.025867 7.825985 102.3398 16.253968l89.697825-48.761905c2.407995-1.203998 5.417989-2.407995 8.427984-2.407995 4.213992 0 8.427984 1.203998 11.437978 4.213992 6.019988 4.815991 7.825985 12.039976 6.019988 19.263962l-22.875955 75.249853C981.258083 123.635509 1024 197.681364 1024 270.523222zM864.470312 92.33157c-6.019988-4.213992-8.427984-12.039976-6.019988-18.661964l12.641975-42.741917-54.179894 29.497942c-2.407995 1.203998-5.417989 2.407995-8.427984 2.407995-1.203998 0-3.009994 0-4.213992-0.601999-31.303939-7.825985-63.811875-16.253968-95.717813-16.253968-146.285714 0-265.481481 100.533804-265.481481 223.943563 0 123.409759 119.195767 223.943563 265.481481 223.943563 143.877719 0 264.879483-102.3398 264.879483-223.943563C974.034098 208.517343 935.506173 145.307466 864.470312 92.33157zM181.803645 255.473251c2.407995 7.223986 0 15.049971-6.621987 19.865961C90.901822 334.335097 48.159906 405.972957 48.159906 488.446796 48.159906 637.140506 191.435626 758.142269 367.821282 758.142269c154.111699 0 291.96943-93.911817 322.069371-218.525573-164.345679-3.611993-297.387419-120.399765-297.387419-261.869489 0-18.661964 2.407995-37.925926 7.825985-57.189888-0.601999 0-1.805996 0-2.407995 0-9.631981-0.601999-19.865961-1.203998-30.099941-1.203998-34.313933 0-63.811875 6.019988-95.717813 12.641975l-19.263962 3.611993c-3.611993 0.601999-7.825985 0-11.437978-1.203998l-80.065844-40.333921L181.803645 255.473251zM612.834803 386.106996c-18.661964 0-37.323927-18.661964-37.323927-37.323927 0-18.661964 18.661964-37.323927 37.323927-37.323927 28.293945 0 45.751911 19.263962 45.751911 37.323927C658.586714 366.843034 641.128748 386.106996 612.834803 386.106996zM804.872428 386.106996c-18.661964 0-36.721928-18.661964-36.721928-37.323927 0-18.661964 18.059965-37.323927 36.721928-37.323927 28.293945 0 45.751911 19.263962 45.751911 37.323927C850.624339 366.843034 833.166373 386.106996 804.872428 386.106996z"  horiz-adv-x="1024" />

    
    <glyph glyph-name="social-qq" unicode="&#58918;" d="M221.76-18.218667a150.229333 69.781333 0 1 1 300.458667 0 150.229333 69.781333 0 1 1-300.458667 0ZM376.448-75.562667c-82.965333 0-150.229333 31.232-150.229333 69.781334 0 1.728 0.298667 3.434667 0.554666 5.141333a35.84 35.84 0 0 1-5.013333-17.6c0-38.528 67.264-69.781333 150.229333-69.781333 79.232 0 143.978667 28.501333 149.653334 64.64-16.789333-29.994667-75.328-52.181333-145.194667-52.181334zM539.989333-18.218667a150.229333 69.781333 0 1 1 300.458667 0 150.229333 69.781333 0 1 1-300.458667 0ZM685.781333-75.562667c82.965333 0 150.229333 31.232 150.229334 69.781334 0 1.728-0.298667 3.434667-0.554667 5.141333 3.157333-5.632 5.013333-11.498667 5.013333-17.6 0-38.528-67.264-69.781333-150.229333-69.781333-79.232 0-143.978667 28.501333-149.653333 64.64 16.768-29.994667 75.328-52.181333 145.194666-52.181334zM865.28 384l-33.770667 108.437333c0 353.045333-285.44 354.218667-300.202666 354.218667-15.338667 0-300.181333-1.173333-300.181334-354.218667L197.333333 384s-114.666667-144-37.333333-269.333333c8.661333-5.994667 9.344-28.010667 56 70.677333 0 0 62.634667-220.693333 313.728-222.570667v-0.085333l1.578667 0.042667 1.578666-0.042667v0.085333c251.072 1.877333 313.728 222.570667 313.728 222.570667 46.677333-98.666667 47.616-78.677333 56-70.677333 77.333333 125.333333-37.333333 269.333333-37.333333 269.333333zM544.448 614.229333a85.333333 60.672 90 1 1 121.344 0 85.333333 60.672 90 1 1-121.344 0ZM388.48 614.229333a85.333333 60.672 90 1 1 121.344 0 85.333333 60.672 90 1 1-121.344 0ZM437.781333 614.229333a43.456 30.890667 90 1 1 61.781334 0 43.456 30.890667 90 1 1-61.781334 0ZM567.488 587.392a6.4 6.4 0 0 0-6.378667 5.738667c-0.405333 3.818667-3.477333 37.76 11.008 53.824 9.834667 10.922667 28.032 10.922667 37.866667 0 14.485333-16.064 11.370667-50.005333 10.986667-53.824a6.186667 6.186667 0 0 0-7.04-5.696 6.421333 6.421333 0 0 0-5.717334 7.04c0.917333 8.810667 1.322667 33.877333-7.744 43.925333a12.650667 12.650667 0 0 1-18.837333 0c-9.109333-10.090667-8.704-35.136-7.765333-43.925333a6.4 6.4 0 0 0-5.717334-7.04c-0.234667-0.042667-0.469333-0.042667-0.661333-0.042667zM468.650667 626.282667a13.312 9.472 90 1 1 18.944 0 13.312 9.472 90 1 1-18.944 0ZM693.333333 488.896c-49.344 23.104-128.448 30.677333-160.448 30.677333s-111.104-7.552-160.448-30.677333c-23.552-8-32.896-14.229333-32.896-21.781333 0-7.552 59.562667-52.010667 123.114667-79.104 29.866667-15.104 38.677333-28.010667 70.229333-28.010667s40.341333 12.885333 70.229334 28.010667c63.552 27.114667 123.114667 71.552 123.114666 79.104 0 7.552-9.344 13.781333-32.896 21.781333zM376.448 464.896s65.770667-46.229333 152.448-46.229333 157.333333 46.229333 157.333333 46.229333-52.437333-34.666667-92.885333-58.666667-45.781333-30.677333-66.218667-30.677333c-20.437333 0-46.677333 24.896-58.453333 30.677333-11.776 5.76-44.224 29.76-92.224 58.666667zM777.322667 420.224c-103.146667-85.994667-245.994667-76.224-245.994667-76.224s-142.848-9.770667-245.994667 76.224c0 0-98.218667-442.453333 245.994667-442.453333s245.994667 442.453333 245.994667 442.453333zM831.552 492.437333s-82.218667-147.562667-300.224-147.562666-300.224 147.562667-300.224 147.562666c-34.666667-95.104-33.770667-108.437333-33.770667-108.437333a416.170667 416.170667 0 0 1 118.442667-91.306667c-2.901333-31.701333-6.869333-80.490667-6.442667-105.365333 0.661333-38.677333 24.277333-41.344 79.146667-46.677333 54.848-5.333333 43.52 9.344 43.52 34.005333v77.888c58.176-11.2 99.328-7.232 99.328-7.232s190.890667-19.562667 333.994667 138.666667c0 0.021333 0.896 13.354667-33.770667 108.458666z"  horiz-adv-x="1024" />

    
    <glyph glyph-name="yanjing-bi" unicode="&#58909;" d="M515.069851 281.006495c-178.665334 0-345.255921 96.188668-434.895573 251.011492-13.098031 22.61457-5.321075 51.47117 17.191166 64.569202 22.61457 13.098031 51.573499 5.321075 64.569202-17.191166 72.755471-125.659239 208.033576-203.735785 353.032877-203.735785s280.277406 78.076546 353.032877 203.838113c13.098031 22.61457 41.954632 30.391526 64.569201 17.293495s30.289198-41.954632 17.293495-64.569202c-89.537324-155.027481-256.12791-251.216149-434.793245-251.216149zM270.095733 233.935445c-8.288598 0-16.781853 2.148896-24.354152 6.753673-22.409913 13.507345-29.572899 42.568602-16.065554 64.876186l52.187469 86.365145c13.507345 22.409913 42.568602 29.470571 64.876186 16.065554 22.409913-13.507345 29.572899-42.568602 16.065554-64.876187l-52.187468-86.365144c-8.902568-14.632957-24.45648-22.819227-40.522035-22.819227zM757.48576 233.935445c-15.963226 0-31.619466 8.083941-40.522035 22.819227l-52.187468 86.365144c-13.507345 22.409913-6.344359 51.368842 15.963225 64.876187 22.409913 13.507345 51.368842 6.344359 64.876187-15.963226l52.187469-86.365144c13.507345-22.409913 6.344359-51.368842-15.963226-64.876187-7.572299-4.604777-16.065554-6.856001-24.354152-6.856001zM515.069851 172.436095c-26.093734 0-47.275707 21.181973-47.275707 47.275707V328.282202c0 26.093734 21.181973 47.275707 47.275707 47.275707 26.093734 0 47.275707-21.181973 47.275707-47.275707v-108.5704c0-26.093734-21.181973-47.275707-47.275707-47.275707z"  horiz-adv-x="1024" />

    
    <glyph glyph-name="icon-test" unicode="&#58896;" d="M860.25924 710.349743h-696.503131c-37.783535 0-68.750827-30.453592-68.750827-67.696822v-517.303796c0-37.244252 30.895661-67.697845 68.750827-67.697845H860.348268c37.766139 0 68.644403 30.453592 68.644403 67.697845V642.652921c0 37.243229-30.878265 67.696822-68.733431 67.696822z m32.45518-584.913637c0-17.316387-14.536065-31.41857-32.45518-31.41857h-696.503131c-17.918092 0-32.471552 14.102183-32.471552 31.41857V642.652921c0 17.315364 14.554484 31.41857 32.471552 31.418571H860.348268c17.830087 0 32.454156-14.102183 32.454156-31.418571v-517.216815h-0.088004z m-72.486918 439.859983c0 10.003841-8.18031 18.095124-18.11252 18.095124H221.973022c-10.021238 0-18.096147-8.18031-18.096147-18.095124 0-10.012028 8.18031-18.10331 18.096147-18.10331h580.14196c9.93221 0 18.11252 8.18031 18.11252 18.10331z m-36.278252-90.581018H675.164638c-19.936051 0-36.296671-16.360619-36.29667-36.287461v-72.486918c0-19.927865 16.359596-36.278251 36.29667-36.278251h108.784612c19.918655 0 36.278251 16.270569 36.278252 36.278251v72.486918c0 19.926842-16.359596 36.287461-36.278252 36.287461z m0-108.775402H675.164638v72.486918h108.784612v-72.486918z"  horiz-adv-x="1024" />

    
    <glyph glyph-name="qq" unicode="&#58885;" d="M110.08 87.591c22.43-7.581 46.927-2.973 68.962 13.135 0.572-0.886 1.123-1.752 1.694-2.619-37.632-22.961-58.624-55.02-58.624-90.762 0-73.511 86.469-126.858 205.627-126.858 63.193 0 121.758 16.404 159.39 44.288 12.229-0.689 23.138-0.689 35.505-0.02 37.632-27.864 96.177-44.268 159.37-44.268 119.138 0 205.646 53.347 205.646 126.858 0 35.663-20.913 67.624-58.387 90.605a99.888 99.888 0 0 1 1.713 2.638c21.977-15.99 46.316-20.618 68.766-13.016 67.17 22.823 70.833 140.012 40.192 238.69-16.266 52.342-46.16 93.361-71.07 120.655 0.295 3.78 0.453 7.542 0.453 11.343 0 28.947-7.582 57.029-22.528 83.672v0.374c0 190.327-153.265 345.187-341.642 345.187-188.396 0-341.661-154.86-341.661-345.187v-1.22c-14.632-26.388-22.056-54.213-22.056-82.807 0-3.446 0.118-6.931 0.394-10.476-25.226-27.451-55.473-68.785-71.857-121.54-30.661-98.718-26.998-215.868 40.113-238.672z m7.956 223.725c15.242 49.132 45.45 86.96 68.096 110.02a25.196 25.196 0 0 1 6.892 21.564c-0.827 5.317-1.26 10.397-1.26 15.34 0 21.681 6.301 43.047 18.688 63.429a25.488 25.488 0 0 1 3.623 14.828 79.882 79.882 0 0 0-0.236 5.79c0 162.56 130.678 294.813 291.288 294.813s291.289-132.253 291.289-294.813c0-1.753-0.079-3.446-0.197-5.16a25.277 25.277 0 0 1 3.683-14.828c12.642-20.559 19.042-42.102 19.042-64.04 0-5.159-0.453-10.377-1.359-15.93-1.339-7.917 1.221-15.951 6.833-21.721 22.37-22.902 52.264-60.475 67.407-109.292 26.959-86.784 17.507-167.286-8.211-176.03-13.332-4.51-29.125 9.708-38.952 21.445-5.336 6.42-13.41 9.807-21.937 8.881a25.137 25.137 0 0 1-19.594-13.233 324.714 324.714 0 0 0-31.252-47.97 25.242 25.242 0 0 1-4.549-21.918 25.215 25.215 0 0 1 14.69-16.876c35.152-14.651 55.277-35.88 55.277-58.25 0-42.181-69.651-76.485-155.274-76.485-55.512 0-107.185 14.828-134.813 38.715a25.174 25.174 0 0 1-16.463 6.124c-0.61 0-1.26-0.02-1.87-0.078-17.389-1.3-30.957-1.28-47.853 0.02-6.932 0.61-13.351-1.675-18.393-6.046-27.667-23.907-79.34-38.735-134.872-38.735-85.603 0-155.254 34.304-155.254 76.485 0 22.45 20.243 43.737 55.512 58.368 7.286 3.033 12.721 9.236 14.71 16.876a25.113 25.113 0 0 1-4.51 21.918c-11.874 15.183-22.37 31.35-31.231 48.049a25.163 25.163 0 0 1-19.633 13.253c-8.468 0.886-16.581-2.462-21.957-8.881-9.886-11.835-25.522-26.349-39.11-21.622-25.776 8.704-35.19 89.186-8.25 175.99z"  horiz-adv-x="1024" />

    
    <glyph glyph-name="chanpinzhongxin1" unicode="&#58976;" d="M409.953 816.616H95.268c-17.38 0-31.469-14.089-31.469-31.468v-333.085c0-17.38 14.09-31.468 31.469-31.468h314.685c17.38 0 31.469 14.089 31.469 31.468V785.148c0 17.38-14.089 31.468-31.469 31.468z m-31.468-333.083H126.736V753.679h251.749v-270.146z m31.468-170.413H95.268c-17.38 0-31.469-14.089-31.469-31.469v-314.684c0-17.38 14.09-31.469 31.469-31.469h314.685c17.38 0 31.469 14.089 31.469 31.469V281.65c0 17.38-14.089 31.469-31.469 31.469z m-31.468-314.686H126.736V250.183h251.749v-251.749zM913.45 313.12H598.764c-17.38 0-31.469-14.089-31.469-31.469v-314.684c0-17.38 14.09-31.469 31.469-31.469H913.45c17.38 0 31.468 14.089 31.468 31.469V281.65c0 17.38-14.089 31.469-31.468 31.469zM881.98-1.566H630.233V250.183h251.75v-251.749zM998.638 647.82L776.123 870.337c-12.29 12.29-32.214 12.29-44.504 0L509.103 647.82c-12.29-12.29-12.29-32.213 0-44.503l222.516-222.516c12.29-12.289 32.214-12.29 44.504 0l222.516 222.516c12.289 12.29 12.289 32.214-0.001 44.503zM753.87 447.556L575.858 625.568 753.87 803.581l178.014-178.013L753.87 447.556z"  horiz-adv-x="1024" />

    
    <glyph glyph-name="kefu1" unicode="&#58902;" d="M249.949091 188.974545c85.643636-63.767273 171.287273-83.781818 265.774545-83.781818 94.976 0 197.376 37.678545 261.608728 91.671273 81.454545-44.218182 153.6-144.290909 154.996363-241.082182H93.090909c11.636364 114.967273 91.694545 197.818182 156.858182 233.192727m521.774545 50.734546c-68.398545-62.813091-160.116364-101.003636-261.12-101.003636a386.327273 386.327273 0 0 0-261.12 100.538181C127.045818 177.803636 46.545455 67.956364 46.545455-81.454545h930.90909c0 149.410909-81.92 259.723636-205.730909 321.163636M208.058182 375.621818V612.538182l-10.24-0.465455c53.992727 116.852364 173.614545 197.818182 312.785454 197.818182 138.705455 0 258.327273-80.989091 312.296728-197.818182l-9.774546 0.488728V375.621818c66.583273 0 121.041455 53.061818 121.041455 118.225455 0 44.683636-25.134545 83.316364-62.370909 103.796363C820.130909 744.261818 678.190545 849.454545 510.603636 849.454545 343.04 849.454545 201.076364 744.261818 148.945455 597.643636c-37.236364-20.48-61.905455-59.112727-61.905455-103.773091 0-65.186909 53.992727-118.248727 121.018182-118.248727m302.08-114.967273c-121.018182 0-218.763636 95.883636-218.763637 214.109091s103.796364 214.109091 218.763637 214.109091c120.529455 0 218.298182-95.883636 218.298182-214.109091s-97.745455-214.109091-218.298182-214.109091m0.465454 470.109091c-144.756364 0-262.050909-114.967273-262.050909-256.488727 0-141.963636 117.294545-256.930909 262.050909-256.930909 144.314182 0 261.585455 114.967273 261.585455 256.930909C772.189091 615.796364 654.917818 730.763636 510.603636 730.763636m0 0"  horiz-adv-x="1024" />

    
    <glyph glyph-name="eye" unicode="&#59097;" d="M512 678.5c-247.1 0-447.5-309.5-447.5-309.5s200.4-279.5 447.5-279.5 447.5 279.5 447.5 279.5-200.4 309.5-447.5 309.5zM794.1 265.7c-43.6-37.4-87.7-67.1-131-88.1-51.9-25.3-102.8-38.1-151.2-38.1s-99.2 12.8-151.2 38.1c-43.3 21.1-87.4 50.7-131 88.1-45.9 39.4-81.8 79.4-103 104.9 20.8 27.9 56.6 72.5 103.2 117 43.8 41.9 88.1 75 131.5 98.6 51.8 28.1 102.4 42.3 150.4 42.3 47.7 0 97.9-14.1 149.4-41.8 43.3-23.3 87.3-56.2 131-97.7 47.1-44.8 83.6-90.1 104.7-118.4-21-25.6-56.9-65.5-102.8-104.9zM512 594c-116 0-210-94-210-210s94-210 210-210 210 94 210 210-94 210-210 210zM625.1 270.9c-30.2-30.3-70.4-46.9-113.1-46.9s-82.9 16.6-113.1 46.9c-30.3 30.2-46.9 70.4-46.9 113.1 0 42.7 16.6 82.9 46.9 113.1 30.2 30.3 70.4 46.9 113.1 46.9s82.9-16.6 113.1-46.9c30.3-30.2 46.9-70.4 46.9-113.1 0-42.7-16.6-82.9-46.9-113.1z"  horiz-adv-x="1024" />

    
    <glyph glyph-name="icon-test1" unicode="&#58993;" d="M868.836073 164.119273a22.844509 22.844509 0 1 1 0-45.689018 22.844509 22.844509 0 0 1 0 45.689018z m45.689018 502.690909H229.040873V762.377309a68.328727 68.328727 0 0 1 45.689018 64.344436 68.552145 68.552145 0 0 1-137.085673 0 68.328727 68.328727 0 0 1 45.707637-64.344436v-95.604364h-91.415273A91.396655 91.396655 0 0 1 0.558545 575.394909v-594.087564a91.396655 91.396655 0 0 1 91.378037-91.396654H914.525091a91.415273 91.415273 0 0 1 91.415273 91.415273V575.394909a91.415273 91.415273 0 0 1-91.415273 91.415273zM91.936582-64.400291a45.689018 45.689018 0 0 0-45.689018 45.689018v594.106182a45.707636 45.707636 0 0 0 45.689018 45.689018h639.7952v-685.484218H91.936582z m868.296145 45.689018c0-25.227636-20.48-45.689018-45.707636-45.689018h-137.104291V621.102545h137.104291c25.246255 0 45.707636-20.48 45.707636-45.707636v-594.087564z m-91.415272 502.690909a45.707636 45.707636 0 1 1 0.037236-91.415272 45.707636 45.707636 0 0 1-0.018618 91.415272z m-220.290328-244.456727h-59.149963c-26.2144 0-35.151127 12.101818-38.130037 19.325673-2.978909 7.205236-5.231709 22.081164 13.312 40.624873l89.478982 89.4976a14.7456 14.7456 0 1 0 20.852364-20.852364l-89.478982-89.4976c-3.872582-3.8912-5.510982-6.646691-6.199855-8.192 1.582545-0.595782 4.691782-1.396364 10.165528-1.396364h59.149963v47.439128a14.7456 14.7456 0 0 0 29.509818 0v-57.697746a14.7456 14.7456 0 0 0 0-8.992582v-63.581091a14.7456 14.7456 0 0 0-29.509818 0V239.522909z m-456.145454 0H133.231709c-26.2144 0-35.151127 12.101818-38.130036 19.325673-2.978909 7.205236-5.231709 22.081164 13.293382 40.624873l89.4976 89.4976a14.7456 14.7456 0 1 0 20.852363-20.852364L129.284655 278.621091c-3.872582-3.8912-5.510982-6.646691-6.199855-8.192 1.582545-0.595782 4.691782-1.396364 10.165527-1.396364h59.149964v47.439128a14.7456 14.7456 0 0 0 29.509818 0v-57.697746a14.7456 14.7456 0 0 0 0-8.992582v-63.581091a14.7456 14.7456 0 0 0-29.509818 0V239.522909z m676.4544 61.663418a22.844509 22.844509 0 1 0 0-45.689018 22.844509 22.844509 0 0 0 0 45.689018z m-590.382546 10.575128H499.525818c1.917673-6.572218 3.239564-13.367855 3.8912-20.349673h-228.817454c0.651636 6.981818 1.973527 13.777455 3.8912 20.349673z m22.267346 40.680727h176.5376c5.343418-6.292945 10.184145-13.014109 14.038109-20.349673h-204.613818c3.853964 7.335564 8.694691 14.056727 14.038109 20.349673z m153.879272-162.760146A115.674764 115.674764 0 0 0 388.989673 169.890909a115.693382 115.693382 0 0 0-65.610473 19.809746h131.220945zM323.3792 372.829091a116.047127 116.047127 0 0 0 131.220945 0h-131.220945z m153.879273-162.760146h-176.5376a111.187782 111.187782 0 0 0-14.038109 20.349673h204.613818a111.243636 111.243636 0 0 0-14.038109-20.349673z m22.248727 42.3936H278.472145a118.188218 118.188218 0 0 0-3.8912 21.336437h228.817455a118.244073 118.244073 0 0 0-3.8912-21.336437z"  horiz-adv-x="1024" />

    
    <glyph glyph-name="daifukuan" unicode="&#58935;" d="M884.363636-128H139.636364a139.636364 139.636364 0 0 0-139.636364 139.636364V663.272727C0 791.808 104.192 896 232.727273 896h512a139.636364 139.636364 0 0 0 139.636363-139.636364v-139.636363a139.636364 139.636364 0 0 0 139.636364-139.636364v-23.272727a23.272727 23.272727 0 0 0-46.545455 0v23.272727a93.090909 93.090909 0 0 1-93.090909 93.090909H46.545455v-558.545454a93.090909 93.090909 0 0 1 93.090909-93.090909h744.727272a93.090909 93.090909 0 0 1 93.090909 93.090909v23.272727a23.272727 23.272727 0 0 0 46.545455 0v-23.272727a139.636364 139.636364 0 0 0-139.636364-139.636364z m-46.545454 744.727273V756.363636a93.090909 93.090909 0 0 1-93.090909 93.090909H232.727273a186.181818 186.181818 0 0 1-186.181818-186.181818v-46.545454h791.272727zM209.454545 756.363636h325.818182a23.272727 23.272727 0 0 0 0-46.545454H209.454545a23.272727 23.272727 0 0 0 0 46.545454z m465.454546 0h46.545454a23.272727 23.272727 0 0 0 0-46.545454h-46.545454a23.272727 23.272727 0 0 0 0 46.545454z m69.818182-651.636363a139.636364 139.636364 0 1 0 0 279.272727h279.272727v-279.272727H744.727273z m232.727272 232.727272H744.727273a93.090909 93.090909 0 0 1 0-186.181818h232.727272v186.181818z m-256-93.090909a23.272727 23.272727 0 0 0 23.272728 23.272728h46.545454a23.272727 23.272727 0 0 0 0-46.545455h-46.545454a23.272727 23.272727 0 0 0-23.272728 23.272727z"  horiz-adv-x="1024" />

    
    <glyph glyph-name="bianji" unicode="&#58908;" d="M775.1 330c-17.2 0-31.2-13.9-31.2-31.2v-256.1c0-5.4-4.4-9.8-9.8-9.8H180.3c-5.4 0-9.8 4.4-9.8 9.8v683c0 5.4 4.4 9.8 9.8 9.8h425.5c17.2 0 31.2 13.9 31.2 31.2 0 17.2-14 31.2-31.2 31.2H180.3c-39.8 0-72.1-32.4-72.1-72.1v-683c0-39.8 32.4-72.1 72.1-72.1h553.8c39.8 0 72.1 32.4 72.1 72.1v256c0.1 17.2-13.9 31.2-31.1 31.2zM909.1 715.3c-12.2 12.1-31.9 12.2-44.1 0L460.7 310.6c-12.1-12.2-12.1-31.9 0-44.1 6.1-6.1 14.1-9.1 22-9.1 8 0 16 3 22 9.1L909 671.2c12.2 12.2 12.2 31.9 0.1 44.1z"  horiz-adv-x="1024" />

    
    <glyph glyph-name="jiantou" unicode="&#58897;" d="M666.311505 471.523379c14.771425 14.771425 38.71065 14.771425 53.482075 0 14.771425-14.771425 14.771425-38.71065 0-53.482075L345.411891 43.660638c-14.771425-14.771425-38.71065-14.771425-53.482075 0-14.771425 14.771425-14.771425 38.71065 0 53.482075l374.381689 374.380666zM291.929816 796.226622c-14.771425 14.771425-14.771425 38.71065 0 53.482076 14.771425 14.771425 38.71065 14.771425 53.482075 0l374.381689-374.38169c14.771425-14.771425 14.771425-38.71065 0-53.482075-14.771425-14.771425-38.71065-14.771425-53.482075 0L291.929816 796.226622z"  horiz-adv-x="1024" />

    
    <glyph glyph-name="gengduo" unicode="&#58903;" d="M306.747407-127.99965a52.456347 52.456347 0 0 0-34.970898 91.623752l345.162763 308.79303a158.767877 158.767877 0 0 1 47.210713 104.912694v8.742724a161.915258 161.915258 0 0 1-49.658676 113.655419L271.776509 804.32449a52.456347 52.456347 0 0 0 69.941796 78.334812l345.162763-308.443321a268.926206 268.926206 0 0 0 82.881029-189.891976v-14.338068a264.729698 264.729698 0 0 0-80.433066-174.85449L341.718305-114.710709a52.106638 52.106638 0 0 0-34.970898-13.288941z"  horiz-adv-x="1024" />

    
    <glyph glyph-name="bianji1" unicode="&#58971;" d="M328.96 173.824l-136.96-45.397333 45.397333 136.96 502.698667 502.357333 91.221333-91.221333-502.357333-502.698667zM192 0.256v64.085333h640v-64.085333h-640z"  horiz-adv-x="1024" />

    
    <glyph glyph-name="checkbox1" unicode="&#59079;" d="M170.666667 810.666667a85.333333 85.333333 0 0 1-85.333334-85.333334v-682.666666a85.333333 85.333333 0 0 1 85.333334-85.333334h682.666666a85.333333 85.333333 0 0 1 85.333334 85.333334V725.333333a85.333333 85.333333 0 0 1-85.333334 85.333334H170.666667z m0 85.333333h682.666666a170.666667 170.666667 0 0 0 170.666667-170.666667v-682.666666a170.666667 170.666667 0 0 0-170.666667-170.666667H170.666667a170.666667 170.666667 0 0 0-170.666667 170.666667V725.333333a170.666667 170.666667 0 0 0 170.666667 170.666667z"  horiz-adv-x="1024" />

    
    <glyph glyph-name="arrow-up" unicode="&#58891;" d="M189.668 191.42499999999995l320.678 324.097 325.429-322.00099999c14.29-14.291 37.513-14.24 51.863 0.10999999l0 0.001c14.352 14.351 14.402 37.571-3.556 51.856l-343.491 343.491c-5.186 4.634-11.31199999 9.959-14.619 10.842-13.48600001 5.426-30.055 2.71-43.676-8.144l-348.29-348.29c-10.73800001-14.412-10.794-37.739 3.561-52.09300001 14.351-14.35 37.679-14.293 52.101 0.12700001z"  horiz-adv-x="1024" />

    
    <glyph glyph-name="kefu" unicode="&#58890;" d="M516.426808 88.069169c5.168874 0 10.440102 0.307062 15.71133 0.870008 50.716378 5.885352 93.807387 40.173922 109.672247 87.410266a7.164776 7.164776 0 0 1-4.04298 8.853616 7.676546 7.676546 0 0 1-9.570094-2.968265c-0.204708-0.255885-20.368434-31.729722-98.771553-41.965115-11.770703-1.535309-23.183168-2.354141-34.032685-2.354141-54.964066 0-79.477835 20.061372-79.682543 20.26608a7.727723 7.727723 0 0 1-9.825978 0.102354 7.164776 7.164776 0 0 1-1.535309-9.416562 133.827778 133.827778 0 0 1 112.077565-60.798241z m421.851767 470.009296c-0.716478 0-1.330601-0.153531-1.995902-0.153531-45.956919 192.425409-221.596282 335.925633-432.189515 335.925633-216.376231 0-396.109751-151.483832-435.925433-351.790494C29.477935 535.304713 0 502.397921 0 462.633415v-159.262732c0-44.626318 37.00095-80.808436 82.753161-80.808436 25.793193 0 48.515768 11.770703 63.664151 29.836174 36.591534-93.551502 111.054026-168.935179 205.322005-208.750862a42.988655 42.988655 0 0 0 4.196512 6.499475c1.484132 1.842371 3.121795 3.37768 4.55475 3.37768a7.164776 7.164776 0 0 0 3.991804-1.279424c-21.801389 15.660153-100.613924 96.366235-117.707032 209.006747-7.471838 49.590484 30.962067 98.259783 75.690739 106.294567 71.801289 12.896597 143.24434 27.635564 215.04563 40.327453 45.649858 8.034784 76.867809 32.241491 95.956819 72.568944 4.452396 9.416563 10.900695 28.454396 13.868959 55.936428a8.802439 8.802439 0 0 0 8.700085 7.215953c2.968264 0 5.475936-1.432955 7.164776-3.582388l1.944725 1.228247c28.300865-39.764506 84.442001-127.686541 92.527962-220.470388 9.211855-106.038683 4.094158-178.607627-79.887251-252.916587a6.499475 6.499475 0 0 1-2.200609-4.861813c0-2.302964 1.228247-4.247689 3.070618-5.424758l2.047079-0.921186c0.614124-0.153531 1.125893-0.307062 1.68884-0.307062 0.614124 0 1.074716 0.153531 1.586486 0.307062l3.480034 1.893548c84.953771 45.240442 150.050877 120.77765 180.142936 211.565595 12.231296-17.502524 31.269129-30.092059 53.428757-34.493278-35.516817-156.243291-179.73352-254.093658-358.341147-268.934979a73.183068 73.183068 0 0 1-68.06537 43.909841c-40.37863 0-73.183068-30.91089-73.183068-69.08891 0-38.126843 32.804438-69.037733 73.183068-69.037733 32.650907 0 59.928232 20.214903 69.395971 48.055175 206.75496 16.2231 372.568344 135.056025 407.163977 319.651357 30.552651 12.384827 52.046979 41.350992 52.046978 75.230146V476.451197c0 45.035734-38.024489 81.576091-84.95377 81.576091z m-76.253686-46.315158c-53.940527 141.248438-193.704833 242.118247-358.136439 242.118246-163.715128 0-302.967665-100.050977-357.419961-240.327053-2.661202 3.172972-5.885352 5.936529-8.95597 8.700085 30.808536 170.982258 183.008846 300.971763 366.580639 300.971763 182.701784 0 334.390324-128.71008 366.2224-298.515268-3.121795-4.094158-6.038883-8.341846-8.341846-12.947773z m-510.183218-468.115748c-0.153531-0.255885-0.153531-0.307062 0 0z"  horiz-adv-x="1024" />

    
    <glyph glyph-name="tubiaolunkuo-" unicode="&#58893;" d="M537.6-19.200000000000045H160c-89.6 0-160 70.4-160 160V646.4c0 89.6 70.4 160 160 160h576c89.6 0 160-70.4 160-160v-185.6c0-6.4-6.4-12.8-12.8-12.8s-19.2 6.4-19.2 19.2V646.4c0 70.4-57.6 121.6-121.6 121.6h-576C96 768 44.8 710.4 44.8 646.4v-505.6c0-70.4 57.6-121.6 121.6-121.6h377.6c12.8 0 19.2-6.4 19.2-19.2s-12.8-19.2-25.6-19.2zM32 633.6h832v-38.4H32zM364.8 313.6l-83.2 57.6c-6.4 6.4-19.2 6.4-25.6 0l-83.2-57.6-32 12.8V614.4l19.2 19.2h217.6l19.2-19.2v-288l-32-12.8zM268.8 409.6c12.8 0 25.6-6.4 32-12.8l57.6-38.4V601.6H179.2v-230.4l57.6 38.4h32zM780.8-38.39999999999998c-134.4 0-243.2 108.8-243.2 243.2S646.4 448 780.8 448 1024 332.79999999999995 1024 198.39999999999998s-108.8-236.8-243.2-236.8z m0 448C665.6 409.6 576 313.6 576 198.39999999999998s89.6-204.8 204.8-204.8 204.8 89.6 204.8 204.8-89.6 211.2-204.8 211.2zM896 140.79999999999995h-76.8c-38.4 0-70.4 32-70.4 70.4V352c0 12.8 6.4 19.2 19.2 19.2s19.2-6.4 19.2-19.2v-140.8c0-19.2 12.8-32 32-32H896c12.8 0 19.2-6.4 19.2-19.2s-6.4-19.2-19.2-19.2z"  horiz-adv-x="1024" />

    
    <glyph glyph-name="kefu2" unicode="&#58980;" d="M0 363c1.357 6.971 2.417 14.015 4.121 20.9 9.839 39.752 32.47 70.189 67.092 91.93 2.44 1.533 4.835 4.177 5.824 6.835 40.34 108.526 110.662 191.733 211.028 249.301 46.157 26.476 95.786 43.775 148.236 52.934 33.09 5.778 66.432 8.146 99.961 6.645 91.43-4.092 175.057-31.832 249.871-84.683 79.953-56.479 136.796-130.971 170.663-222.884 1.301-3.53 2.966-6.228 6.387-8.355 38.826-24.152 62.062-58.855 69.726-103.963 0.211-1.246 0.721-2.44 1.092-3.659v-41c-1.723-8.412-3.074-16.92-5.232-25.219-8.667-33.325-25.161-61.517-54.608-80.774-19.781-12.938-41.8-18.568-65.287-18.912-0.634-0.01-1.271 0.18-3.032 0.448 0 8.085 0.176 16.209-0.03 24.323-0.935 36.617-1.974 73.231-2.98 109.847-0.659 23.965-1.373 47.928-1.98 71.895-0.718 28.296-1.309 56.595-2.089 84.889-0.062 2.229-0.869 4.578-1.853 6.619-52.783 109.589-136.663 184.144-252.135 222.56-53.477 17.791-108.662 23.369-164.677 18.193-97.103-8.972-181.184-47.291-251.983-114.394-38.144-36.151-68.124-78.264-90.224-125.943-1.273-2.748-1.969-6.015-2.002-9.051-0.517-47.31-0.839-94.622-1.296-141.933-0.236-24.481-0.643-48.961-0.984-73.441-0.326-23.313-0.663-46.628-1.013-69.941-0.017-1.143-0.204-2.282-0.433-4.705-9.21 1.096-18.332 1.481-27.14 3.346-49.016 10.377-79.672 41.368-95.721 87.6-4.161 11.985-5.57 24.925-8.272 37.42-0.236 1.079-0.682 2.115-1.03 3.172v30zM494-27c-7.189 0.938-14.376 1.894-21.568 2.809-44.237 5.631-85.323 20.245-123.319 43.505-4.136 2.532-7.495 2.799-11.984 0.771-33.132-14.965-67.818-23.196-104.272-24.349-30.586-0.968-59.823 5.12-88.555 14.794-7.056 2.376-14.209 4.467-22.146 6.947 8.367 5.324 15.806 10.654 23.774 15.02 26.099 14.3 43.117 36.637 56.19 62.523 7.913 15.668 14.072 31.984 16.542 49.483 1.295 9.179 0.899 18.036-3.115 26.818-14.649 32.051-23.582 65.781-27.168 100.775-6.343 61.891 2.133 121.733 28.644 178.212 44.609 95.036 117.509 157.241 219.085 184.993 24.327 6.646 49.279 9.56 74.542 9.892 81.24 1.067 153.241-24.492 215.329-76.506 59.163-49.564 97.267-112.682 112.685-188.337 20.12-98.729 1.475-190.212-57.849-271.964-49.638-68.405-116.804-111.245-199.607-128.891-13.131-2.799-26.671-3.672-40.017-5.479-1.417-0.191-2.796-0.672-4.192-1.019C522.667-27 508.333-27 494-27z m-284.399 62.545c1.692-0.272 2.764-0.546 3.847-0.605 42.263-2.325 81.972 7.302 119.532 26.19 8.721 4.386 16.21 4.214 24.305-1.096 61.624-40.418 129.125-55.568 201.919-44.833 63.854 9.417 118.979 37.595 163.438 84.213 71.544 75.018 98.857 164.852 79.713 266.555-17.46 92.751-69.37 162.46-152.756 207.302-60.317 32.436-124.778 40.829-191.743 26.988-65.407-13.518-119.559-46.68-162.596-97.554-43.137-50.992-66.338-110.297-70.179-176.885-2.786-48.309 5.496-94.891 25.492-139.098 7.155-15.816 8.362-32.04 5.687-48.806-5.1-31.963-17.989-60.773-35.902-87.486-3.294-4.912-6.924-9.6-10.757-14.885zM380.377 263.066c-25.269 0.002-45.29 20.303-45.311 45.946-0.021 25.623 19.925 46.193 45.002 46.41 25.021 0.216 45.679-20.723 45.728-46.349 0.049-25.342-20.354-46.008-45.419-46.007zM570.934 309.2c0.001-25.799-19.831-46.121-45.022-46.134-25.403-0.013-45.573 20.487-45.567 46.312 0.006 25.266 20.562 46.092 45.46 46.059 25.017-0.035 45.128-20.637 45.129-46.237zM671.897 355.373c25.572-0.862 45.61-22.078 44.704-47.331-0.958-26.699-22.006-46.045-48.918-44.965-23.291 0.935-42.799 23.072-41.809 47.442 1.041 25.585 21.655 45.675 46.023 44.854z"  horiz-adv-x="1034" />

    
    <glyph glyph-name="jiantou1" unicode="&#58965;" d="M969.17504 593.77664l-45.056 45.056-411.4432-411.4432L109.64992 630.41536l-45.056-45.056 448.08192-448.08192z"  horiz-adv-x="1024" />

    
    <glyph glyph-name="jiantou2" unicode="&#58892;" d="M677.47617655-23.56169466999995c12.25749506-12.25749506 30.64373596-12.25749506 42.90123101 0s12.25749506 30.64373596 0 42.90123101L355.7169439 384 720.37740756 748.66046366c12.25749506 12.25749506 12.25749506 30.64373596 0 42.90123101-6.12874753 6.12874753-15.32186798 9.19312045-21.45061552 9.19312046s-15.32186798-3.06437293-21.45061549-9.19312046l-386.11107917-386.11107916c-12.25749506-12.25749506-12.25749506-30.64373596 0-42.90123102L677.47617655-23.56169466999995z"  horiz-adv-x="1024" />

    
    <glyph glyph-name="bianji2" unicode="&#59016;" d="M623.0016 654.1312l38.5024 38.912-84.992 85.6064-38.5024-38.912 84.992-85.6064zM184.4224 208.2816l373.5552 376.7296-84.992 85.6064L99.5328 293.9904v-85.7088H184.5248z m-136.2944-100.0448c-12.288 0-28.672 6.144-35.5328 19.456C4.1984 135.168 0.2048 150.3232 0.2048 160.0512V314.88c0 11.4688 5.12 22.528 15.1552 32.768L543.9488 880.4352a48.2304 48.2304 0 0 0 34.4064 15.36 48.128 48.128 0 0 0 34.4064-15.36l150.016-155.0336c20.3776-20.48 20.3776-48.128 0-68.8128L234.0864 123.8016c-3.584-9.4208-20.0704-15.5648-32.5632-15.5648h-153.6zM55.3984-80.7936a55.296 55.296 0 0 0 0 110.2848H921.8048a55.296 55.296 0 0 0 0-110.2848H55.5008z"  horiz-adv-x="1024" />

    
    <glyph glyph-name="liebiao" unicode="&#59047;" d="M897.427 646.997H126.572c-34.674 0-62.732 28.089-62.732 62.732s28.058 62.731 62.732 62.731h770.855c34.674 0 62.732-28.088 62.732-62.731s-28.057-62.732-62.732-62.732z m0-325.729H126.572c-34.674 0-62.732 28.089-62.732 62.732s28.058 62.732 62.732 62.732h770.855c34.674 0 62.732-28.089 62.732-62.732s-28.057-62.732-62.732-62.732z m0-325.728H126.572c-34.674 0-62.732 28.088-62.732 62.731s28.058 62.732 62.732 62.732h770.855c34.674 0 62.732-28.089 62.732-62.732 0.001-34.643-28.057-62.731-62.732-62.731z"  horiz-adv-x="1024" />

    
    <glyph glyph-name="shouye" unicode="&#58883;" d="M971.867318 438.959342v-560.198137H650.401455V164.036384H471.804633v-285.275179H150.324743v561.376439l-105.247562-98.03748c-10.801096-10.099726-27.774247-9.482521-37.873972 1.304548A26.708164 26.708164 0 0 0 8.535812 381.194521L561.103044 896l552.595288-516.306411c10.801096-10.099726 11.362192-27.016767 1.262466-37.803836a26.694137 26.694137 0 0 0-19.568219-8.472548c-6.550795 0-13.129644 2.384658-18.305754 7.22411l-105.233534 98.332055z m-53.528548 50.021699L561.07499 822.791014 203.783154 489.948932c0.084164-0.841644 0.126247-1.711342 0.126247-2.567014v-555.134247h214.310575V217.522849h285.752109v-285.275178h214.324603V487.381918l0.042082 1.599123z m-160.782027 263.434521a26.764274 26.764274 0 0 0-26.792329 26.750246c0 14.770849 12.007452 26.736219 26.792329 26.736219h214.310575v-196.117041a26.764274 26.764274 0 0 0-26.792328-26.750246 26.764274 26.764274 0 0 0-26.792329 26.750246V752.415562H757.57077z"  horiz-adv-x="1122" />

    
    <glyph glyph-name="icon-test2" unicode="&#59091;" d="M393.542992 58.514286h664.59321a10.15395 10.15395 0 0 0 0-20.32511H393.542992a10.15395 10.15395 0 1 0 0 20.32511z m-217.931295-60.975328h300.350387a10.15395 10.15395 0 0 0 0-20.316504H175.611697a10.15395 10.15395 0 0 0 0 20.316504z m409.909782 0h747.821176a10.15395 10.15395 0 0 0 0-20.316504H585.521479a10.15395 10.15395 0 0 0 0 20.316504z m-506.518588 0h44.126655a10.15395 10.15395 0 0 0 0-20.316504H78.994286a10.15395 10.15395 0 0 0 0 20.316504z m1015.024941 60.975328h29.971361a10.15395 10.15395 0 0 0 0-20.32511h-29.971361a10.15395 10.15395 0 0 0 0 20.32511z m300.944134-60.975328h53.910589a10.15395 10.15395 0 0 0 0-20.316504h-53.910589a10.15395 10.15395 0 1 0 0 20.316504z m-332.077176-97.546756h109.714286a10.15395 10.15395 0 0 0 0-20.316505h-109.714286a10.15395 10.15395 0 1 0 0 20.316505z m-46.699563 0h15.833277a10.15395 10.15395 0 0 0 0-20.316505h-15.833277a10.15395 10.15395 0 1 0 0 20.316505z m-399.532101 0h173.339966a10.15395 10.15395 0 0 0 0-20.316505H616.654521a10.15395 10.15395 0 1 0 0 20.316505z m260.285311 0h109.722891a10.15395 10.15395 0 1 0 0-20.316505h-109.714286a10.15395 10.15395 0 1 0 0 20.316505zM326.088067 58.514286h29.971362a10.15395 10.15395 0 0 0 0-20.32511h-29.971362a10.15395 10.15395 0 0 0 0 20.32511z m197.167328-60.975328h23.784336a10.15395 10.15395 0 0 0 0-20.316504h-23.784336a10.15395 10.15395 0 1 0 0 20.316504z m97.830723 326.148303v-111.211564c0-3.321546 0.447462-5.601882 1.368201-6.823798 0.912134-1.230521 2.598723-1.850084 5.06837-1.850084h6.754958c5.042555 0.08605 7.658487-2.951529 7.882219-9.16437v-32.681949c0-5.679328-2.891294-8.889008-8.691093-9.654857-3.760403-0.421647-6.10958-1.118655-7.064739-2.091026-0.97237-0.946555-1.462857-3.278521-1.462858-6.909848v-18.982723c0.430252-6.763563-2.667563-10.30884-9.33647-10.644437h-55.020639c-3.855059 0-6.393546 0.679798-7.572437 2.022185-1.178891 1.342387-1.764034 4.216471-1.764033 8.622252v16.564706c0 4.500437-0.860504 7.632672-2.581513 9.422521-1.703798 1.755429-4.706958 2.641748-9.000874 2.641748h-62.756571c-7.520807 0-12.795697 1.591933-15.850488 4.741378-3.063395 3.166655-4.577882 8.613647-4.577882 16.34958 0 10.29163 1.221916 18.337345 3.691563 24.119933 3.011765 7.193815 11.642622 19.318319 25.901176 36.373512l40.87395 49.074555c20.49721 24.576 35.616269 40.237176 45.382992 46.983529 4.397176 3.011765 9.723697 5.472807 16.005378 7.400336 6.281681 1.944739 12.141714 2.899899 17.631731 2.899899 5.360941 0 9.224605-1.342387 11.582386-4.018554 2.366387-2.684773 3.528067-7.08195 3.528068-13.182924z m-67.584-83.520538v7.890823c0 9.637647-2.684773 14.482286-8.062925 14.482286-4.052975 0-7.873613-2.202891-11.40168-6.608672l-24.782521-30.410219c-7.193815-8.906218-10.782118-15.282555-10.782118-19.154823 0-2.788034 1.497277-4.586487 4.509042-5.386757 3.00316-0.800269 10.463731-1.376807 22.355899-1.686588l12.718252-0.172101c5.464202 0 9.16437 0.628168 11.100504 1.858689 1.936134 1.247731 3.063395 3.674353 3.381782 7.314286 0.645378 5.911664 0.963765 16.538891 0.963765 31.873076z m492.242823 83.520538v-111.211564c0-3.321546 0.447462-5.601882 1.376807-6.823798 0.903529-1.230521 2.590118-1.850084 5.059765-1.850084h6.763563c5.03395 0.08605 7.658487-2.951529 7.890823-9.16437v-32.681949c0-5.679328-2.908504-8.889008-8.699697-9.654857-3.760403-0.421647-6.10958-1.118655-7.090555-2.091026-0.946555-0.946555-1.428437-3.278521-1.428437-6.909848v-18.982723c0.413042-6.763563-2.693378-10.30884-9.336471-10.644437h-55.037848c-3.872269 0-6.393546 0.679798-7.555227 2.022185-1.196101 1.342387-1.789849 4.216471-1.789849 8.622252v16.564706c0 4.500437-0.851899 7.632672-2.564302 9.422521-1.721008 1.755429-4.724168 2.641748-9.009479 2.641748h-62.756572c-7.512202 0-12.787092 1.591933-15.850487 4.741378-3.072 3.166655-4.586487 8.613647-4.586488 16.34958 0 10.29163 1.221916 18.337345 3.700168 24.119933 3.011765 7.193815 11.642622 19.318319 25.918387 36.373512l40.85674 49.074555c20.49721 24.576 35.607664 40.237176 45.382991 46.983529 4.405782 3.011765 9.740908 5.472807 16.005378 7.400336 6.281681 1.944739 12.141714 2.899899 17.631731 2.899899 5.360941 0 9.224605-1.342387 11.573782-4.018554 2.357782-2.684773 3.545277-7.08195 3.545277-13.182924z m-67.575395-83.520538v7.890823c0 9.637647-2.693378 14.482286-8.062924 14.482286-4.07879 0-7.873613-2.202891-11.410286-6.608672l-24.782521-30.410219c-7.18521-8.906218-10.790723-15.282555-10.790723-19.154823 0-2.788034 1.505882-4.586487 4.517647-5.386757 3.00316-0.800269 10.446521-1.376807 22.364505-1.686588l12.701042-0.172101c5.490017 0 9.16437 0.628168 11.117714 1.858689 1.918924 1.247731 3.05479 3.674353 3.373176 7.314286 0.645378 5.911664 0.97237 16.538891 0.97237 31.873076z m-117.174857 36.657479a120.522218 120.522218 0 0 0 12.090084-53.09311c0-34.316908-13.114084-62.386555-39.333647-84.277781-20.092773-16.607731-42.964975-24.902992-68.685445-24.902992-28.396639 0-52.576807 9.26763-72.531899 27.777076-23.663866 21.899832-35.487193 51.105345-35.487194 87.702588 0 35.693714 10.807933 63.677311 32.406588 84.011025 19.085983 18.070588 42.913345 27.080067 71.568135 27.080068 17.537076 0 34.411563-4.268101 50.666487-12.855933 22.003092-11.513546 38.430118-28.63758 49.306891-51.432336zM765.065681 142.611361c21.57284 0 40.753479 6.264471 57.610756 18.715967 22.003092 16.530286 32.983126 37.621244 32.983126 63.419159 0 14.112269-3.364571 27.475899-10.136739 39.961816-9.112739 17.115429-22.889412 30.031597-41.355832 38.671058a98.063059 98.063059 0 0 1-42.508908 9.689278c-24.008067 0-44.01479-6.780773-60.011563-20.350925-18.122218-15.299765-27.174723-36.347697-27.174723-63.221243 0-27.510319 9.913008-49.547832 29.756236-65.940437 16.745412-13.948773 37.018891-20.944672 60.837647-20.944673z m-49.917849 116.305748l5.214655-1.944739a4.104605 4.104605 0 0 1 0.92074-0.232336c0.361412 0 0.550723 0.387227 0.645378 1.135865l0.025815 0.232336-0.232336 5.584673v0.430252c0 1.669378 0.240941 2.701983 0.740034 3.132235 0.499092 0.404437 1.721008 0.619563 3.657143 0.619563 1.660773 0 2.779429-0.146286 3.330151-0.370017 0.542118-0.266756 0.886319-0.774454 0.998185-1.617748 0.08605-0.714218 0.137681-1.437042 0.10326-2.194285l-0.197916-5.584673c0-0.903529 0.232336-1.368202 0.688404-1.368201a3.872269 3.872269 0 0 1 0.886319 0.232336l5.197445 1.944739a8.863193 8.863193 0 0 0 2.676168 0.636773c0.550723 0 0.98958-0.137681 1.325177-0.507697 0.318387-0.344202 0.662588-1.015395 1.032605-2.01358 0.662588-1.755429 0.998185-3.10642 1.067025-4.07879 0.043025-0.980975-1.067025-1.807059-3.355966-2.435227l-5.369547-1.523092c-0.740034-0.223731-1.127261-0.516303-1.12726-0.90353 0-0.172101 0.172101-0.490487 0.533513-0.946554l3.467831-4.354151c1.015395-1.333782 1.548908-2.323361 1.548908-2.98595 0-0.765849-0.912134-1.746824-2.667563-3.05479-1.574723-1.07563-2.658958-1.617748-3.244101-1.617748-0.757244 0-1.695193 0.800269-2.805244 2.469647l-3.080605 4.638118c-0.378622 0.524908-0.722824 0.808874-1.006789 0.808874-0.258151 0-0.585143-0.283966-0.97237-0.808874l-3.063395-4.638118c-1.11005-1.669378-2.03079-2.469647-2.831059-2.469647-0.593748 0-1.669378 0.542118-3.218286 1.617748-1.764034 1.264941-2.676168 2.271731-2.676168 3.05479 0 0.645378 0.542118 1.634958 1.591933 2.98595l3.424807 4.362756c0.344202 0.447462 0.524908 0.774454 0.524907 0.946554 0 0.370017-0.395832 0.671193-1.135865 0.894925l-5.317916 1.523092c-2.237311 0.628168-3.347361 1.419832-3.347362 2.357782 0 1.032605 0.395832 2.555697 1.221916 4.646722 0.524908 1.350992 1.264941 2.01358 2.202891 2.01358 0.619563 0 1.505882-0.206521 2.624538-0.619563z m77.815395 0l5.20605-1.944739a4.276706 4.276706 0 0 1 0.912135-0.232336c0.370017 0 0.576538 0.387227 0.671193 1.135865l0.01721 0.232336-0.240941 5.584673v0.430252c0 1.669378 0.258151 2.701983 0.740034 3.132235 0.516303 0.404437 1.729613 0.619563 3.674353 0.619563 1.660773 0 2.762218-0.146286 3.312941-0.370017 0.550723-0.266756 0.886319-0.774454 0.98958-1.617748 0.103261-0.714218 0.154891-1.437042 0.13768-2.194285l-0.215126-5.584673c0-0.903529 0.232336-1.368202 0.688403-1.368201 0.163496 0 0.447462 0.08605 0.894925 0.232336l5.18884 1.944739c1.187496 0.430252 2.091025 0.636773 2.667563 0.636773 0.567933 0 1.00679-0.137681 1.333782-0.507697 0.309782-0.344202 0.662588-1.015395 1.04121-2.01358 0.636773-1.755429 0.98958-3.10642 1.032605-4.07879 0.06884-0.980975-1.032605-1.807059-3.330151-2.435227l-5.360942-1.523092c-0.748639-0.223731-1.144471-0.516303-1.14447-0.90353 0-0.172101 0.172101-0.490487 0.533512-0.946554l3.467832-4.354151c1.015395-1.333782 1.540303-2.323361 1.540303-2.98595 0-0.765849-0.886319-1.746824-2.676168-3.05479-1.548908-1.07563-2.624538-1.617748-3.218286-1.617748-0.748639 0-1.703798 0.800269-2.831059 2.469647l-3.063395 4.638118c-0.370017 0.524908-0.705613 0.808874-0.989579 0.808874s-0.602353-0.283966-0.97237-0.808874l-3.072-4.638118c-1.101445-1.669378-2.039395-2.469647-2.822454-2.469647-0.602353 0-1.677983 0.542118-3.226891 1.617748-1.772639 1.264941-2.667563 2.271731-2.667563 3.05479 0 0.645378 0.533513 1.634958 1.583328 2.98595l3.416202 4.362756c0.344202 0.447462 0.542118 0.774454 0.542117 0.946554 0 0.370017-0.404437 0.671193-1.14447 0.894925l-5.317916 1.523092c-2.237311 0.628168-3.347361 1.419832-3.347362 2.357782 0 1.032605 0.404437 2.555697 1.204706 4.646722 0.550723 1.350992 1.282151 2.01358 2.211496 2.01358 0.619563 0 1.514487-0.206521 2.633143-0.619563z m2.306151-83.382857a17.003563 17.003563 0 0 0-17.020773-16.969143h-26.331429a17.003563 17.003563 0 0 0-17.037983 16.969143c0 9.465546 7.615462 17.081008 17.037983 17.081009h26.331429a17.037983 17.037983 0 0 0 17.020773-17.081009z m14.955563 158.109042l11.857748 17.451025c16.702387 24.59321 17.640336 38.378487 15.471866 45.606723-1.755429 5.877244-5.954689 8.235025-6.9959 8.734118-69.270588 19.103193-69.898756 68.349849-69.898756 70.440874-1.875899 29.687395 13.105479 58.273345 42.190521 79.99247 27.166118 20.282084 63.858017 32.80242 103.346555 35.280672a220.977479 220.977479 0 0 0 13.656201 0.430253c75.75879 0 129.118655-39.350857 132.784404-97.925379 3.614118-57.619361-49.478992-96.909983-138.601412-102.5721-3.510857-0.490487-7.632672-1.609143-9.293445-2.486858l-0.086051-0.223731-0.946554-1.032605c-31.322353-34.179227-71.62837-46.931899-73.332168-47.456806l-20.153009-6.238656z m109.628235 243.152672c-4.18205 0-8.458756-0.137681-12.735462-0.404437-36.115361-2.254521-70.896941-14.060639-95.421311-32.363563-24.954622-18.638521-37.83637-42.681008-36.261647-67.72168 0.025815-2.06521 1.127261-40.848134 59.521076-56.741647l0.610958-0.197916c1.196101-0.447462 11.745882-4.681143 15.970958-17.846857 3.424807-10.713277 1.488672-23.801546-5.773983-39.084101 13.303395 6.720538 31.141647 17.760807 46.424201 34.205042 3.545277 5.791193 12.752672 8.166185 20.170219 9.121344 63.324504 3.992739 129.170286 28.904336 125.530353 86.97116-3.149445 50.279261-50.589042 84.071261-118.043967 84.07126z m-41.166521-89.320336l2.383597-13.053848c1.445647-7.890824 1.893109-13.578756 1.307966-17.055194-1.273546-7.417546-5.911664-13.432471-13.948773-18.105008-4.853244-2.865479-10.558387-4.930689-17.124033-6.10958-11.453311-2.091025-21.116773-1.049815-28.998992 3.132235-3.846454 2.06521-6.729143 4.732773-8.648067 8.062925-1.953345 3.269916-3.528067 8.27805-4.749983 14.938353-0.490487 2.590118-1.170286 6.909849-2.073815 12.890353-0.662588 4.225076-1.127261 7.021714-1.376807 8.372705-0.550723 2.968739-1.135866 4.956504-1.781244 6.032135-0.653983 1.04121-1.807059 1.944739-3.510857 2.684773-2.633143 1.101445-4.13042 2.581513-4.474622 4.483227a4.879059 4.879059 0 0 0 1.144471 4.018555c0.97237 1.282151 2.426622 2.306151 4.311126 3.072 3.786218 1.462857 8.355496 2.727798 13.699227 3.700168 5.894454 1.084235 10.859563 1.523092 14.912538 1.376806 3.975529-0.197916 6.23005-1.755429 6.780773-4.793008a4.457412 4.457412 0 0 0-0.98958-3.898084c-0.206521-0.275361-1.204706-1.015395-2.925714-2.254521a4.259496 4.259496 0 0 1-1.824269-3.149446c-0.172101-1.394017 0.025815-3.588303 0.585142-6.625882 0.585143-3.12363 1.669378-9.878588 3.252706-20.221849 0.946555-6.169815 3.442017-10.541176 7.555227-13.114084 3.330151-2.09963 7.23684-2.753613 11.737278-1.936134 2.848269 0.516303 5.335126 1.540303 7.460571 2.994555 2.13405 1.488672 3.631328 3.269916 4.517647 5.283495 0.714218 1.566118 1.09284 3.244101 1.118656 5.03395a35.633479 35.633479 0 0 1-0.731429 7.081949l-2.159866 11.763093c-1.841479 9.018084-3.05479 14.24995-3.682958 15.721412-0.628168 1.505882-1.99637 2.521277-4.11321 3.05479-2.01358 0.473277-3.424807 1.015395-4.21647 1.548907a3.502252 3.502252 0 0 0-1.480067 2.323361c-0.395832 2.142655 0.593748 3.958319 2.977344 5.403967 2.366387 1.437042 6.376336 2.667563 12.012639 3.717378 5.515832 0.98958 9.603227 1.247731 12.262185 0.740034 2.658958-0.516303 4.173445-1.824269 4.577882-3.932505 0.172101-1.032605 0.111866-1.824269-0.232336-2.400806-0.326992-0.593748-1.325176-1.531697-2.93432-2.925715-1.721008-1.411227-2.581513-2.727798-2.607327-4.044369-0.05163-1.256336 0.602353-5.877244 1.979159-13.819698z m24.954622 9.190185c1.505882 0.146286 2.366387-0.834689 2.598723-2.968739l0.060235-0.679799 0.068841-1.04121c0.154891-1.419832 0.662588-2.091025 1.505882-1.99637 0.438857 0.05163 1.07563 0.688403 1.918924 1.92753 1.256336 1.772639 2.908504 3.287126 4.96511 4.474622 2.06521 1.204706 4.242286 1.901714 6.505411 2.15126 4.422992 0.464672 7.641277-0.817479 9.723698-3.846454 0.774454-1.118655 1.385412-1.669378 1.807059-1.609142 0.283966 0.01721 0.903529 0.619563 1.884504 1.789848 3.080605 3.725983 6.780773 5.817008 11.160739 6.281681 3.398992 0.361412 6.281681-0.292571 8.648068-1.927529 2.486857-1.721008 3.923899-4.517647 4.345546-8.432942 0.08605-0.834689 0.223731-2.271731 0.378622-4.28531 0.01721-0.688403 0.197916-2.753613 0.576537-6.238656 0.232336-2.220101 0.378622-3.751798 0.447463-4.663933 0.043025-0.567933 0.06884-0.963765 0.10326-1.221916a6.711933 6.711933 0 0 1 2.048-4.242285c0.705613-0.688403 1.153076-1.153076 1.325177-1.402622 0.172101-0.232336 0.283966-0.576538 0.335596-0.98958 0.344202-3.381782-3.442017-5.498622-11.393075-6.333311-3.510857-0.378622-6.376336-0.249546-8.630858 0.361412-2.237311 0.628168-3.433412 1.591933-3.579697 2.968739a2.770824 2.770824 0 0 0 0.08605 1.239126c0.120471 0.301176 0.550723 1.11005 1.290757 2.374992 0.705613 1.161681 0.722824 4.827429 0.08605 10.954218-0.387227 3.553882-0.903529 6.006319-1.548907 7.348706-0.774454 1.591933-2.01358 2.323361-3.751799 2.125446a3.536672 3.536672 0 0 1-2.228706-1.067026 3.786218 3.786218 0 0 1-1.118655-2.16847c-0.137681-0.97237 0-3.528067 0.413042-7.641277 0.550723-4.440202 0.980975-7.11637 1.282151-8.05432 0.301176-0.920739 1.101445-2.168471 2.426622-3.734588a2.753613 2.753613 0 0 0 0.550723-1.462857c0.335597-3.15805-3.614118-5.15442-11.823328-6.02353-4.939294-0.507697-8.303866-0.507697-10.093714 0.025816a3.183866 3.183866 0 0 0-2.409412 2.891294 2.968739 2.968739 0 0 0 0.111866 1.419832c0.154891 0.266756 0.679798 0.946555 1.583327 1.996369a4.225076 4.225076 0 0 1 0.963765 1.686589c0.129076 0.516303 0.154891 1.411227 0.08605 2.710588-0.129076 2.925714-0.335597 5.851429-0.653983 8.811563-0.542118 5.18884-2.151261 7.632672-4.775798 7.340101-1.987765-0.197916-3.046185-1.419832-3.183866-3.674353-0.094655-2.125445 0.06884-5.13721 0.464673-9.009479 0.326992-2.899899 0.576538-4.810218 0.791663-5.687933a8.467361 8.467361 0 0 1 1.273547-2.710588c0.757244-1.067025 1.187496-1.97916 1.247731-2.667563 0.172101-1.729613-0.894924-3.03758-3.218286-3.95832-2.555697-0.98958-5.386756-1.634958-8.518992-1.961949-4.07879-0.447462-7.09916-0.447462-9.069714 0-1.970555 0.438857-3.028975 1.376807-3.183865 2.770823a2.469647 2.469647 0 0 0 0.240941 1.402622c0.197916 0.387227 0.731429 1.024 1.540302 1.91032a6.711933 6.711933 0 0 1 1.574723 4.706957c-0.05163 3.295731-0.258151 6.686118-0.636773 10.20558-0.275361 2.504067-0.585143 4.242286-0.946555 5.223261a4.14763 4.14763 0 0 1-1.858689 2.220101 8.802958 8.802958 0 0 0-1.669378 1.221916 2.504067 2.504067 0 0 0-0.481882 1.282151c-0.172101 1.746824 1.067025 3.295731 3.717378 4.620907 6.436571 3.115025 11.29842 4.879059 14.628571 5.249076z m81.395093 0.946555c2.977345 0.335597 5.679328-0.438857 8.088739-2.254521 2.435227-1.875899 3.829244-4.448807 4.182051-7.770353a10.498151 10.498151 0 0 0-2.495463-8.183395 10.859563 10.859563 0 0 0-7.417546-3.915294 10.876773 10.876773 0 0 0-8.054319 2.263126 10.747697 10.747697 0 0 0-4.199261 7.615462c-0.335597 3.269916 0.490487 6.040739 2.486858 8.329681 1.97916 2.271731 4.448807 3.596908 7.400336 3.915294z m28.80968 3.080605c2.968739 0.301176 5.662118-0.456067 8.062925-2.271731 2.461042-1.867294 3.846454-4.448807 4.190655-7.761748 0.335597-3.08921-0.499092-5.842824-2.486857-8.200605-1.97916-2.306151-4.431597-3.614118-7.417546-3.915294a10.971429 10.971429 0 0 0-8.054319 2.271731 10.730487 10.730487 0 0 0-4.199261 7.615462c-0.335597 3.269916 0.490487 6.040739 2.495462 8.329681 1.970555 2.280336 4.440202 3.579697 7.408941 3.932504zM115.849681 618.014118a55.614387 55.614387 0 1 0 0 111.237378 55.614387 55.614387 0 0 0 0-111.237378z m0.197916 25.427899a29.997176 29.997176 0 1 1 0 59.994353 29.997176 29.997176 0 0 1 0-59.994353z m530.156638 204.197647a5.249076 5.249076 0 1 0 0-10.506756h-39.858554v-39.858555a5.249076 5.249076 0 0 0-10.506757 0V837.132908H555.971765a5.249076 5.249076 0 0 0 0 10.498151h39.867159V887.506824a5.249076 5.249076 0 0 0 10.498152 0V847.639664zM87.280941 395.100504a3.794824 3.794824 0 0 0-0.01721-7.589647l-37.629849-0.008605v-37.83637a3.794824 3.794824 0 1 0-7.589647 0v37.862185L3.786218 387.545277a3.786218 3.786218 0 0 0 0.017211 7.589647l38.249411-0.01721V432.876639a3.794824 3.794824 0 0 0 7.598252 0v-37.793345z m1391.65042 191.462185a1.738218 1.738218 0 1 0-2.461042-2.461042l-17.235899 17.235899-17.244504-17.235899a1.738218 1.738218 0 0 0-2.461042 2.461042l17.235899 17.244504-17.235899 17.235899a1.738218 1.738218 0 0 0 2.461042 2.461042l17.244504-17.235899 17.235899 17.235899a1.738218 1.738218 0 1 0 2.461042-2.461042l-17.235899-17.235899z m-260.577882-98.699832c-4.431597 4.422992-8.845983 8.863193-13.29479 13.268975-0.490487 0.490487-0.456067 0.740034 0.01721 1.196101 1.084235 1.024 2.108235 2.108235 3.183866 3.19247l0.550722-0.516302 13.432471-13.415261c0.447462-0.447462 0.404437-0.688403-0.01721-1.09284-1.067025-1.032605-2.09963-2.11684-3.201076-3.252706-0.292571 0.266756-0.490487 0.430252-0.671193 0.619563z m33.465008-25.556975c4.638118-4.663933 9.28484-9.310655 13.922958-13.957378 0.03442-0.03442 0.05163-0.077445 0.146286-0.249546-1.170286-1.153076-2.331966-2.323361-3.528067-3.442017-0.094655-0.08605-0.516303 0.043025-0.671193 0.189311-1.96195 1.927529-3.898084 3.872269-5.842824 5.817009l-7.589647 7.589647-0.524908 0.550722c0.094655 0.137681 0.163496 0.275361 0.258152 0.378622 1.032605 1.032605 2.056605 2.048 3.072 3.080605 0.258151 0.258151 0.456067 0.344202 0.757243 0.03442z m-1.05842 25.737681c-0.894924 0.963765-1.850084 1.884504-2.788033 2.805244-0.258151 0.258151-0.352807 0.456067-0.051631 0.757243l13.725042 13.707832c0.060235 0.060235 0.137681 0.094655 0.301177 0.206521 1.161681-1.170286 2.297546-2.297546 3.407596-3.442016 0.08605-0.094655 0.05163-0.344202 0.008606-0.499093-0.03442-0.111866-0.172101-0.197916-0.258152-0.283966-4.422992-4.422992-8.845983-8.828773-13.251764-13.251765-0.430252-0.447462-0.679798-0.430252-1.092841 0z m-31.408403-25.883966c0.903529-0.963765 1.850084-1.875899 2.796639-2.796639 0.258151-0.258151 0.344202-0.456067 0.043025-0.765849l-13.716437-13.699227c-0.060235-0.060235-0.146286-0.103261-0.301177-0.215126-1.170286 1.170286-2.306151 2.306151-3.416201 3.450622-0.08605 0.08605-0.05163 0.344202 0 0.499093 0.025815 0.111866 0.172101 0.189311 0.258151 0.283966 4.414387 4.414387 8.837378 8.820168 13.24316 13.251765 0.430252 0.438857 0.688403 0.430252 1.09284 0z m16.461445 42.844504c0-2.770824-0.01721-5.541647 0.008605-8.312471 0.008605-0.602353-0.172101-0.791664-0.774453-0.774454a77.385143 77.385143 0 0 1-3.898085 0.008606c-0.430252 0-0.628168 0.094655-0.628168 0.585142v17.012168c0 0.456067 0.146286 0.602353 0.602353 0.602353 1.350992-0.025815 2.693378-0.03442 4.02716 0 0.542118 0.01721 0.671193-0.180706 0.671193-0.688403-0.01721-2.805244-0.008605-5.619092-0.008605-8.432941z m-21.512605-26.030252a74.390588 74.390588 0 0 1 0-3.95832c0-0.464672-0.154891-0.602353-0.602353-0.602353h-17.012168c-0.490487 0-0.585143 0.197916-0.585143 0.628169 0.025815 1.342387 0.025815 2.684773 0 4.018554-0.008605 0.499092 0.154891 0.645378 0.645378 0.645378 2.805244-0.01721 5.619092-0.008605 8.432942-0.008605 2.788034 0 5.584672-0.01721 8.372706 0.008605 0.567933 0 0.774454-0.137681 0.748638-0.731428z m60.235294 0.03442c-0.03442-1.342387-0.025815-2.684773 0-4.02716 0-0.430252-0.146286-0.567933-0.576537-0.567933h-17.003564c-0.516303 0-0.628168 0.197916-0.619563 0.662589 0.025815 1.316571 0.03442 2.641748 0 3.958319-0.01721 0.524908 0.163496 0.671193 0.679799 0.671193 2.805244-0.01721 5.619092-0.008605 8.432941-0.008605 2.796639 0 5.584672-0.008605 8.372706 0.008605 0.533513 0 0.731429-0.137681 0.714218-0.697008z m-38.722689-34.162017c0-2.822454-0.01721-5.636303 0-8.450151 0.008605-0.542118-0.146286-0.722824-0.697008-0.705614a92.340706 92.340706 0 0 1-4.02716 0c-0.430252 0-0.567933 0.154891-0.567933 0.576538V453.270588c0 0.447462 0.137681 0.619563 0.602353 0.602353 1.342387-0.01721 2.684773-0.025815 4.018555 0.008605 0.533513 0.01721 0.688403-0.172101 0.679798-0.679798-0.025815-2.788034-0.008605-5.576067-0.008605-8.372706z m251.594219-91.686723a33.155227 33.155227 0 1 0 0 66.310454 33.155227 33.155227 0 0 0 0-66.310454z m-0.025815 10.110925a23.457345 23.457345 0 1 1 0 46.914689 23.457345 23.457345 0 0 1 0-46.914689z m-413.489479 378.062521a24.076908 24.076908 0 1 0 0 48.153815 24.076908 24.076908 0 0 0 0-48.153815z m-0.258152 11.083294a13.251765 13.251765 0 1 1 0 26.486319 13.251765 13.251765 0 0 1 0-26.486319z"  horiz-adv-x="1523" />

    
    <glyph glyph-name="checkbox" unicode="&#58916;" d="M512 21.9c200 0 362.1 162.1 362.1 362.1S712 746.1 512 746.1 149.9 584 149.9 384 312 21.9 512 21.9z m0-51.7C283.5-29.8 98.2 155.5 98.2 384S283.5 797.8 512 797.8 925.8 612.5 925.8 384 740.5-29.8 512-29.8z"  horiz-adv-x="1024" />

    
    <glyph glyph-name="fangdajing" unicode="&#58936;" d="M921.3 22L738.1 205.2c51.3 62.6 82.1 142.5 82.1 229.6 0 200.1-162.8 363-363 363-200.1 0-363-162.8-363-363s162.8-363 363-363c87 0 167 30.8 229.6 82.1L870-29.3c7.1-7.1 16.4-10.6 25.7-10.6s18.6 3.5 25.7 10.6c14.1 14.2 14.1 37.2-0.1 51.3zM166.8 434.8c0 160.1 130.3 290.4 290.4 290.4s290.4-130.3 290.4-290.4-130.3-290.4-290.4-290.4-290.4 130.3-290.4 290.4z"  horiz-adv-x="1024" />

    
    <glyph glyph-name="chanpinzhongxin2" unicode="&#58884;" d="M415.2 388h-296c-14.4 0-26.4 12-26.4 26.4v296c0 14.4 12 26.4 26.4 26.4h296c14.4 0 26.4-12 26.4-26.4v-296c0-14.4-12-26.4-26.4-26.4z m-269.6 52.8h243.2V684H145.6v-243.2z m549.6-114.4c-7.2 0-13.6 2.4-18.4 8L468 544a26.56 26.56 0 0 0 0 37.6l209.6 208.8c9.6 9.6 27.2 9.6 37.6 0l208.8-209.6c10.4-10.4 10.4-27.2 0-37.6L714.4 334.4c-5.6-4.8-12-8-19.2-8zM523.2 562.4l172-172 172 172-172 172-172-172z m-108-592h-296c-14.4 0-26.4 12-26.4 26.4v36.8c0 14.4 12 26.4 26.4 26.4s26.4-12 26.4-26.4v-10.4h243.2V265.6H145.6V224c0-14.4-12-26.4-26.4-26.4s-26.4 12-26.4 26.4v68c0 14.4 12 26.4 26.4 26.4h296c14.4 0 26.4-12 26.4-26.4v-296c0-13.6-12-25.6-26.4-25.6zM119.2 87.2c-14.4 0-26.4 12-26.4 26.4V144c0 14.4 12 26.4 26.4 26.4s26.4-12 26.4-26.4v-30.4c0-14.4-12-26.4-26.4-26.4z m724-116.8h-296c-14.4 0-26.4 12-26.4 26.4v296c0 14.4 12 26.4 26.4 26.4h296c14.4 0 26.4-12 26.4-26.4v-296c0-14.4-12-26.4-26.4-26.4z m-269.6 52.8h243.2V265.6H573.6v-242.4z"  horiz-adv-x="1024" />

    
    <glyph glyph-name="guanbi-yanjing" unicode="&#59107;" d="M94.4 246.4c-3.2 0-8 0-11.2 1.6-16 6.4-25.6 24-19.2 41.6l65.6 180.8c6.4 16 24 25.6 41.6 19.2 16-6.4 25.6-24 19.2-41.6l-65.6-180.8c-4.8-12.8-17.6-20.8-30.4-20.8z m267.2-107.2h-4.8c-17.6 3.2-28.8 19.2-25.6 36.8l33.6 188.8c3.2 17.6 19.2 28.8 36.8 25.6 17.6-3.2 28.8-19.2 25.6-36.8l-33.6-188.8c-3.2-14.4-17.6-25.6-32-25.6z m300.8 0c-16 0-28.8 11.2-32 27.2l-33.6 188.8c-3.2 17.6 8 33.6 25.6 36.8 17.6 3.2 33.6-8 36.8-25.6L694.4 176c3.2-17.6-8-33.6-25.6-36.8h-6.4z m267.2 107.2c-12.8 0-25.6 8-30.4 20.8L833.6 448c-6.4 16 3.2 35.2 19.2 41.6 16 6.4 35.2-3.2 41.6-19.2L960 289.6c6.4-16-3.2-35.2-19.2-41.6-3.2 0-8-1.6-11.2-1.6zM512 320C128 320 8 584 3.2 595.2c-6.4 16 0 35.2 16 41.6 16 6.4 35.2 0 41.6-16C65.6 611.2 171.2 384 512 384c340.8 0 446.4 227.2 451.2 236.8 6.4 16 25.6 24 41.6 16 16-6.4 24-25.6 16-41.6C1016 584 896 320 512 320z"  horiz-adv-x="1024" />

    
    <glyph glyph-name="bianjixiugai" unicode="&#58904;" d="M702.083337 840.868495c33.699849 0 61.055031-27.217386 61.055031-60.742406v-343.710035l-335.4655-344.167348h9.512262-244.542223c-33.727408 0-61.039529 27.09423-61.039529 60.535711V840.869356H111.231892h590.851445zM76.218671 896v-757.855596c0-55.819627 45.569292-101.027203 101.783361-101.027203H459.508158l5.987257 6.055294 346.325584 350.218334 5.841709 5.907163V794.766103C817.662708 850.64257 772.076192 896 715.862984 896H76.218671zM742.144215 235.076468l105.64683-105.647691 15.697601-16.782748 83.942163 84.576027-138.726594 139.358735-82.34803-86.351879 15.78803-15.153306z m134.474712-20.355984l-30.435795-30.630432-51.072538 49.254486 29.431603 31.969642 52.07673-50.593696zM737.075028 262.358446L516.19418 41.477598l-4.29925-4.298389-1.191939-5.96228-20.08039-115.041104-5.907163-44.175825 44.175825 5.907162 115.041104 20.079529 5.962281 1.192801 4.299249 4.29925 220.879987 220.879986 14.199065 14.199065-14.199065 14.199065-109.601588 109.601588-14.199065 14.199065-14.198203-14.199065z m28.597934-57.682463l52.267923-51.583246L614.537796-47.991926l-65.139835-14.157726 16.216922 66.961332 200.05894 199.865164zM193.345669 560.982338m27.559293 0l451.283432 0q27.559294 0 27.559293-27.559293l0 0q0-27.559294-27.559293-27.559294l-451.283432 0q-27.559294 0-27.559293 27.559294l0 0q0 27.559294 27.559293 27.559293ZM193.345669 728.060555m27.559293 0l451.283432 0q27.559294 0 27.559293-27.559293l0 0q0-27.559294-27.559293-27.559294l-451.283432 0q-27.559294 0-27.559293 27.559294l0 0q0 27.559294 27.559293 27.559293ZM193.345669 393.042893m27.559293 0l254.923465 0q27.559294 0 27.559294-27.559293l0 0q0-27.559294-27.559294-27.559294l-254.923465 0q-27.559294 0-27.559293 27.559294l0 0q0 27.559294 27.559293 27.559293Z"  horiz-adv-x="1024" />

    
    <glyph glyph-name="huiyuan" unicode="&#58917;" d="M723.748 603.162c-1.649-118.267-92.764-217.017-211.38-225.311-117.252-8.197-223.728 80.814-238.397 196.997-14.97 118.62 66.903 225.802 181.99 250.179 116.486 24.683 230.667-54.38 260.895-166.283 4.926-18.212 6.636-36.782 6.892-55.582 0.46-32.989 51.66-33.035 51.2 0-1.633 117.13-73.14 217.523-181.694 260.014-108.14 42.347-235.673 3.968-308.751-83.989-74.86-90.096-82.432-219.545-23.209-319.62C321.06 358.583 440.52 311.187 553.82 331.94c128.66 23.562 219.346 143.396 221.128 271.222 0.46 33.029-50.74 32.988-51.2 0z m245.14-512.927c-1.659-86.16-69.504-154.066-155.678-155.725-86.196-1.659-154.128 72.028-155.74 155.725-1.66 86.2 72.043 154.127 155.74 155.74 86.185 1.659 154.07-72.08 155.678-155.74 0.635-32.973 51.835-33.034 51.2 0-2.201 114.227-92.641 204.733-206.878 206.94-114.253 2.207-204.8-96-206.94-206.94-2.202-114.253 96-204.785 206.94-206.925 114.237-2.202 204.738 96.015 206.878 206.925 0.635 33.034-50.565 32.973-51.2 0zM80.486-93.624c1.142 143.529 74.24 276.362 195.37 353.592 139.381 88.868 320.414 82.268 457.092-8.223 27.623-18.283 53.228 26.076 25.841 44.211-150.948 99.943-347.786 104.27-503.065 11.746-140.309-83.61-225.147-239.1-226.438-401.326-0.26-33.03 50.94-33.004 51.2 0z m657.388 234.05c20.162-43.453 40.315-86.912 60.477-130.36 7.906-17.045 36.107-16.415 44.212 0l64.962 131.548c14.567 29.496-29.588 55.445-44.211 25.84L798.35 35.908h44.212c-20.163 43.453-40.315 86.912-60.478 130.36-13.885 29.926-58.01 3.901-44.211-25.84z"  horiz-adv-x="1024" />

    
    <glyph glyph-name="jiantou_xiangshang_o" unicode="&#60304;" d="M507.733333 682.666667v-725.333334h42.666667V691.2l145.066667-145.066667 29.866666 29.866667L533.333333 768 341.333333 576l29.866667-29.866667L507.733333 682.666667z"  horiz-adv-x="1024" />

    
    <glyph glyph-name="jiantou_xiangxia_o" unicode="&#60305;" d="M558.933333 42.666667V768h-42.666666v-733.866667l-145.066667 145.066667-29.866667-29.866667 192-192 192 192-29.866666 29.866667-136.533334-136.533333z"  horiz-adv-x="1024" />

    
    <glyph glyph-name="gouwuche1" unicode="&#58922;" d="M471.209 2.872c-1.434-44.364-34.954-77.88-79.32-79.314-44.349-1.433-77.956 37.11-79.318 79.314-1.434 44.35 37.115 77.957 79.319 79.32 44.35 1.433 77.952-37.116 79.319-79.32 1.065-32.932 52.265-33.034 51.2 0-2.355 72.7-57.82 128.17-130.52 130.52-72.662 2.35-128.28-61.354-130.518-130.52-2.35-72.658 61.358-128.281 130.519-130.514 72.658-2.35 128.282 61.353 130.519 130.514 1.065 33.035-50.135 32.927-51.2 0z m438.123 0c-1.433-44.364-34.954-77.88-79.319-79.314-44.344-1.433-77.957 37.11-79.319 79.314-1.433 44.345 37.115 77.957 79.32 79.32 44.349 1.433 77.957-37.11 79.318-79.32 1.065-32.932 52.27-33.034 51.2 0-2.35 72.7-57.82 128.17-130.519 130.52-72.657 2.35-128.286-61.359-130.519-130.52-2.35-72.658 61.364-128.281 130.52-130.514 72.657-2.35 128.286 61.353 130.518 130.514 1.07 33.035-50.13 32.927-51.2 0z m-44.63 220.176H430.862c-34.98 0-80.025-3.973-101.058 29.772-19.287 30.95-26.343 71.634-34.468 106.783-23.793 102.969-42.557 207.14-62.69 310.861C219.06 740.48 215.42 826.429 152.162 871.142 130.488 886.462 101.92 892.457 75.786 892.554c-7.352 0.026-14.669-0.916-21.929-2.017 11.853 1.797-1.32 1.137-5.52 1.316-5.467 0.24-10.935 0.476-16.409 0.706-33.024 1.408-32.89-49.797 0-51.2 11.776-0.501 23.86-2.114 35.538-0.184-6.62-1.09-1.464-0.215 3.44 0.056 6.631 0.369 13.267 0 19.866-0.65 42.568-4.183 63.734-41.482 71.747-79.513 21.028-99.794 38.979-200.239 59.085-300.222 9.236-45.937 18.616-91.889 29.701-137.416 8.842-36.306 18.673-76.876 41.57-107.049 28.569-37.652 74.193-43.514 118.61-44.477 35.23-0.758 70.548-0.051 105.783-0.051h347.428c33.02-0.005 33.02 51.195 0.005 51.195zM388.577 723.66h533.458c19.927 0 13.205-14.161 9.564-26.72l-26.997-93.133-60.334-208.128c-3.677-12.667-4.137-35.738-19.385-35.738H286.996c-33.018 0-33.018-51.2 0-51.2H823.85c8.294 0 16.317 0.963 24.32 3.41 27.305 8.34 34.468 31.974 41.323 55.624l16.42 56.647 65.193 224.87 15.427 53.198c11.202 38.635-29.973 72.37-64.497 72.37H388.577c-33.019 0-33.019-51.2 0-51.2z"  horiz-adv-x="1024" />

    
    <glyph glyph-name="iconfontgengduo" unicode="&#58881;" d="M746.662019 384c0-51.835575 42.044582-93.865831 93.865831-93.865831 51.851948 0 93.865831 42.029232 93.865831 93.865831 0 51.836599-42.013883 93.865831-93.865831 93.865831C788.706601 477.864808 746.662019 435.836599 746.662019 384zM89.604272 384c0-51.835575 42.043558-93.865831 93.864808-93.865831 51.822272 0 93.865831 42.029232 93.865831 93.865831 0 51.836599-42.043558 93.865831-93.865831 93.865831C131.648854 477.864808 89.604272 435.836599 89.604272 384zM418.132634 384c0-51.835575 42.013883-93.865831 93.866854-93.865831 51.821249 0 93.864808 42.029232 93.864808 93.865831 0 51.836599-42.043558 93.865831-93.864808 93.865831C460.146517 477.864808 418.132634 435.836599 418.132634 384z"  horiz-adv-x="1024" />

    
    <glyph glyph-name="icon-test3" unicode="&#59001;" d="M506.029155 22.763848l-3.731779-14.180758c34.332362-8.209913 41.795918-16.419825 43.28863-19.405247 0.746356-1.492711 0.746356-2.239067 0-4.478135-2.239067-5.22449-17.912536-12.688047-38.810496-11.941691-9.702624 0-32.093294 2.985423-37.317784 21.644315l-14.180758-4.478134c5.970845-19.405248 24.629738-31.346939 51.498542-32.093294h2.985423c20.897959 0 44.781341 7.463557 50.005831 21.644315 2.239067 5.970845 2.239067 11.195335-0.746356 16.419825-5.970845 10.44898-22.390671 19.405248-52.991253 26.868804zM744.862974 67.54519c-17.166181 0-102.997085-2.985423-102.997085-54.483966 0-32.093294 34.332362-51.498542 102.250729-55.976676l0.746356 14.927114c-40.303207 2.985423-88.816327 11.941691-88.816327 41.049562 0 38.810496 84.338192 39.556851 88.069971 39.556852 23.137026 0 79.113703-15.673469 79.113703-40.303207h14.927113c0.746356 38.810496-66.425656 55.230321-93.29446 55.230321zM1619.591837 51.87172c-4.478134 10.44898-11.941691 17.166181-23.137027 20.151604-33.586006 10.44898-70.90379-11.195335-110.460641-63.440234-48.51312 24.629738-100.758017 44.781341-157.481049 61.947522 22.390671 14.927114 42.542274 32.093294 61.947521 51.498543l-10.448979 10.448979c-64.932945-64.932945-147.778426-105.982507-246.297376-120.909621l2.239067-14.927114c65.6793 10.44898 124.641399 31.346939 176.886297 63.440234 140.314869-39.556851 255.253644-102.997085 342.57726-188.081633l10.448979 10.44898c-22.390671 21.644315-46.274052 41.795918-71.650146 60.45481 26.122449 51.498542 34.332362 87.323615 25.376094 108.96793z m-27.615161 5.970846c6.717201-2.239067 11.195335-5.970845 14.180758-11.941691 5.22449-11.941691 4.478134-38.06414-24.629737-94.787172-25.376093 17.912536-52.991254 35.078717-82.099126 50.005831 34.332362 46.274052 65.6793 64.932945 92.548105 56.723032zM1172.524781 170.542274l-14.927113 2.985423c-4.478134-21.644315-19.405248-43.28863-43.28863-64.932945l2.985423 14.180758c-124.641399 26.122449-299.28863 26.122449-518.717202 0-23.137026-2.985423-46.274052-6.717201-69.411078-10.448979l-6.717201 32.83965c13.434402 2.239067 36.571429 8.956268 36.571428 28.361516 0 11.941691-4.478134 39.556851-14.180758 81.352769l-14.927114-2.985422c11.195335-50.752187 14.180758-70.157434 14.180758-78.367347 0-7.463557-13.434402-11.941691-24.629737-14.180758L492.594752 292.944606l-14.927114-2.985422 18.658893-91.055394c-8.956268-2.985423-17.912536-4.478134-23.137027 0.746356-3.731778 3.731778-10.44898 16.419825-17.912536 63.440233l-14.927114-2.239067c8.209913-52.244898 16.419825-65.6793 22.390671-70.90379 3.731778-3.731778 10.44898-7.463557 20.151603-7.463557 4.478134 0 10.44898 0.746356 16.419825 2.985423l14.927114-73.889213c-24.629738-4.478134-49.259475-9.702624-73.142857-15.673469-1.492711 38.06414-11.941691 88.069971-28.361516 132.851311-11.941691 32.83965-37.317784 90.309038-72.396502 114.19242-16.419825 10.44898-33.586006 12.688047-50.00583 5.970846-51.498542-22.390671-70.157434-80.606414-58.215744-176.886298-8.956268 2.239067-17.912536 0.746356-26.868805-3.731778-37.317784-18.658892-43.28863-73.142857-18.658892-164.944606-61.201166-30.600583-120.163265-65.6793-175.393586-106.728863l8.956268-11.941691c167.930029 123.148688 363.475219 198.530612 580.664724 225.399417 217.93586 26.122449 390.344023 26.122449 514.239067 0-21.644315-19.405248-50.752187-38.06414-87.323616-55.976677l6.717202-13.434402c82.099125 40.303207 127.626822 82.845481 138.075801 129.865889zM296.303207 333.994169c11.195335 5.22449 23.137026 3.731778 35.825073-4.478134 50.752187-33.586006 92.548105-164.944606 94.787172-238.087464-40.303207-10.44898-80.606414-23.137026-119.41691-37.317784-19.405248 59.708455-39.556851 96.279883-61.947522 110.460642h1.492712c-12.688047 94.040816 3.731778 149.271137 49.259475 169.42274zM211.965015 153.376093c7.463557 3.731778 14.180758 4.478134 20.897959 1.492712 14.180758-5.970845 36.571429-29.107872 61.201166-105.982508-32.093294-11.941691-63.440233-25.376093-94.040816-40.303207-21.644315 81.35277-17.166181 129.865889 11.941691 144.793003zM1294.180758 113.819242l-9.702624 11.195335c-26.122449-22.390671-69.411079-44.034985-129.865889-64.932944l5.22449-14.180758c61.201166 22.390671 106.728863 44.781341 134.344023 67.918367zM1633.772595 424.303207c-2.239067 23.137026-7.463557 44.781341-17.166181 64.932945-23.137026 48.51312-105.236152 142.553936-253.760933 153.002915-155.241983 10.44898-217.93586-47.020408-244.058309-97.772595-2.985423-5.22449-5.22449-10.44898-7.463557-14.927113-99.265306-7.463557-156.734694-32.83965-174.64723-76.12828-6.717201-14.927114-3.731778-33.586006 6.717201-52.991254 13.434402-23.883382 35.825073-46.274052 64.932945-66.425656-5.970845-38.06414 25.376093-73.889213 95.533527-108.221574 88.816327-43.28863 247.790087-82.845481 370.938776-82.845481 18.658892 0 35.825073 0.746356 52.991253 2.985422 81.35277 8.956268 123.895044 29.107872 130.612245 61.201167 64.186589 11.941691 103.74344 35.825073 115.685132 71.650145 13.434402 47.766764-32.093294 95.533528-140.314869 145.539359zM1132.221574 537.749271c23.137026 46.274052 82.099125 99.265306 229.131196 89.562682 141.80758-9.702624 220.174927-98.51895 241.819242-144.046647 14.927114-32.83965 20.151603-69.411079 14.927113-108.96793-55.230321-44.034985-148.524781-52.244898-275.405247-23.137026-128.373178 29.107872-208.233236 69.411079-238.087464 119.416909 1.492711 15.673469 20.897959 54.483965 27.61516 67.172012z m393.329446-376.909621c-123.895044-14.180758-314.962099 29.107872-414.973761 78.367347-57.469388 28.361516-86.577259 56.723032-88.06997 85.084548 82.845481-52.991254 207.48688-91.055394 314.962099-107.475218 80.606414-11.941691 151.510204-17.912536 211.965014-17.912537 34.332362 0 64.932945 2.239067 92.548105 5.970846-13.434402-26.868805-68.664723-38.810496-116.431487-44.034986z m232.862974 122.402333c-8.209913-26.122449-62.693878-105.982507-419.451895-51.498543-213.457726 32.83965-348.548105 114.19242-382.880466 176.139942-5.970845 10.44898-11.941691 26.122449-5.970846 39.556851 14.927114 36.571429 66.425656 58.962099 153.749271 66.425656-9.702624-22.390671-14.180758-36.571429-14.180758-44.781341v-2.239067l0.746356-1.492711c30.600583-55.230321 114.19242-98.51895 248.536443-129.119534 50.752187-11.195335 96.279883-17.166181 137.329446-17.166181 65.6793 0 117.177843 14.927114 153.749271 45.527697l2.239067 1.492712 0.746356 2.985422c1.492711 12.688047 2.239067 25.376093 2.239067 38.06414 93.294461-44.781341 135.090379-85.830904 123.148688-123.895043zM1026.239067 470.577259c-14.180758 0-26.122449-11.941691-26.122449-26.122449s11.941691-26.122449 26.122449-26.122448 26.122449 11.941691 26.122449 26.122448-11.941691 26.122449-26.122449 26.122449z m0-37.317784c-5.970845 0-11.195335 5.22449-11.195335 11.195335s5.22449 11.195335 11.195335 11.195336 11.195335-5.22449 11.195335-11.195336-5.22449-11.195335-11.195335-11.195335zM1182.973761 366.087464c-14.180758 0-26.122449-11.941691-26.122449-26.122449s11.941691-26.122449 26.122449-26.122449 26.122449 11.941691 26.122449 26.122449-11.941691 26.122449-26.122449 26.122449z m0-37.317785c-5.970845 0-11.195335 5.22449-11.195335 11.195336s5.22449 11.195335 11.195335 11.195335 11.195335-5.22449 11.195335-11.195335-5.22449-11.195335-11.195335-11.195336zM1444.198251 306.379009c-14.180758 0-26.122449-11.941691-26.122449-26.122449s11.941691-26.122449 26.122449-26.122449 26.122449 11.941691 26.122449 26.122449-11.941691 26.122449-26.122449 26.122449z m0-37.317785c-5.970845 0-11.195335 5.22449-11.195336 11.195336s5.22449 11.195335 11.195336 11.195335 11.195335-5.22449 11.195335-11.195335-5.22449-11.195335-11.195335-11.195336zM1697.959184 328.769679c-14.180758 0-26.122449-11.941691-26.122449-26.122449s11.941691-26.122449 26.122449-26.122449 26.122449 11.941691 26.122449 26.122449-11.941691 26.122449-26.122449 26.122449z m0-37.317784c-5.970845 0-11.195335 5.22449-11.195336 11.195335s5.22449 11.195335 11.195336 11.195336 11.195335-5.22449 11.195335-11.195336-5.22449-11.195335-11.195335-11.195335z"  horiz-adv-x="1778" />

    
    <glyph glyph-name="tuihuo" unicode="&#58887;" d="M136.613948 631.024941h42.827294c16.534588 0 29.906824-13.492706 29.906824-30.117647s-13.372235-30.117647-29.906824-30.117647H29.96736a29.997176 29.997176 0 0 0-29.906824 30.117647v150.588235c0 16.624941 13.372235 30.117647 29.906824 30.117647 16.504471 0 29.876706-13.492706 29.876706-30.117647v-120.470588h11.565176a30.117647 30.117647 0 0 0 4.276706 15.540706C167.243595 800.045176 332.288301 896 513.80736 896 795.588066 896 1024.060536 666.804706 1024.060536 384s-228.472471-512-510.253176-512C256.421948-128 40.177242 64.301176 7.740536 318.283294a30.087529 30.087529 0 0 0 25.840942 33.731765 29.936941 29.936941 0 0 0 33.460706-26.051765C95.653948 101.978353 286.539595-67.764706 513.80736-67.764706c248.801882 0 450.469647 202.300235 450.469647 451.764706 0 249.464471-201.667765 451.764706-450.469647 451.764706C359.665242 835.764706 219.045948 757.458824 136.613948 631.024941z m317.650824-199.68l-110.47153 117.458824a27.407059 27.407059 0 0 0 1.024 38.550588 26.864941 26.864941 0 0 0 38.219294-1.024l117.790118-125.289412 117.790118 125.289412a26.864941 26.864941 0 0 0 38.219294 1.024 27.407059 27.407059 0 0 0 1.024-38.550588l-110.47153-117.458824h86.347295c14.938353 0 27.045647-12.227765 27.045647-27.286588s-12.107294-27.256471-27.045647-27.256471h-101.376v-54.512941h101.376c14.938353 0 27.045647-12.167529 27.045647-27.226353s-12.107294-27.256471-27.045647-27.25647h-101.376v-97.490824c0-15.058824-12.107294-27.256471-27.01553-27.25647a27.136 27.136 0 0 0-27.045647 27.25647v97.490824h-114.868706a27.136 27.136 0 0 0-27.045647 27.25647c0 15.058824 12.107294 27.256471 27.045647 27.256471h114.868706v54.512941h-114.868706a27.136 27.136 0 0 0-27.045647 27.226353c0 15.058824 12.107294 27.256471 27.045647 27.256471h90.834824z"  horiz-adv-x="1024" />

    
    <glyph glyph-name="shixinyuanxingjiantouxia" unicode="&#58929;" d="M960 384c0 247.4-200.6 448-448 448S64 631.4 64 384s200.6-448 448-448 448 200.6 448 448zM490.7 270.2L305.3 455.6c-5.8 5.8-8.8 13.5-8.8 21.2s2.9 15.4 8.8 21.2c11.7 11.7 30.8 11.7 42.4 0l164.2-164.2L676.1 498c11.7 11.7 30.8 11.7 42.4 0 5.8-5.8 8.8-13.5 8.8-21.2s-2.9-15.4-8.8-21.2L533.1 270.2c-11.7-11.7-30.8-11.7-42.4 0z"  horiz-adv-x="1024" />

    
    <glyph glyph-name="shixinyuanxingjiantouzuo" unicode="&#58930;" d="M512-64c247.4 0 448 200.6 448 448S759.4 832 512 832 64 631.4 64 384s200.6-448 448-448zM398.2 405.3l185.4 185.4c5.8 5.8 13.5 8.8 21.2 8.8s15.4-2.9 21.2-8.8c11.7-11.7 11.7-30.8 0-42.4L461.8 384.1 626 219.9c11.7-11.7 11.7-30.8 0-42.4-5.8-5.8-13.5-8.8-21.2-8.8-7.7 0-15.4 2.9-21.2 8.8L398.2 362.9c-11.7 11.7-11.7 30.8 0 42.4z"  horiz-adv-x="1024" />

    
    <glyph glyph-name="shixinyuanxingjiantouyou" unicode="&#58931;" d="M512 832C264.6 832 64 631.4 64 384s200.6-448 448-448 448 200.6 448 448S759.4 832 512 832z m113.8-469.3L440.4 177.3c-5.8-5.8-13.5-8.8-21.2-8.8s-15.4 2.9-21.2 8.8c-11.7 11.7-11.7 30.8 0 42.4l164.2 164.2L398 548.1c-11.7 11.7-11.7 30.8 0 42.4 5.8 5.8 13.5 8.8 21.2 8.8s15.4-2.9 21.2-8.8l185.4-185.4c11.7-11.7 11.7-30.8 0-42.4z"  horiz-adv-x="1024" />

    
    <glyph glyph-name="shixinyuanxingjiantoushang" unicode="&#58932;" d="M64 384c0-247.4 200.6-448 448-448s448 200.6 448 448S759.4 832 512 832 64 631.4 64 384z m469.3 113.8l185.4-185.4c5.8-5.8 8.8-13.5 8.8-21.2s-2.9-15.4-8.8-21.2c-11.7-11.7-30.8-11.7-42.4 0L512.1 434.2 347.9 270c-11.7-11.7-30.8-11.7-42.4 0-5.8 5.8-8.8 13.5-8.8 21.2s2.9 15.4 8.8 21.2l185.4 185.4c11.7 11.7 30.8 11.7 42.4 0z"  horiz-adv-x="1024" />

    
    <glyph glyph-name="guanbi" unicode="&#58898;" d="M1014.503-61.523L569.619 383.36l444.884 444.884c15.34 15.34 15.34 40.909 0 56.25s-40.909 15.34-56.25 0L513.37 439.61 68.485 884.494c-15.34 15.341-40.908 15.341-56.25 0-15.34-15.34-15.34-40.908 0-56.25L457.12 383.362 12.236-61.523C2.009-71.75-3.105-87.091 2.009-102.432 7.122-117.772 22.463-128 37.804-128c10.227 0 20.454 5.114 25.568 10.227l444.884 444.884 444.884-444.884c5.113-5.113 15.34-10.227 25.568-10.227 15.34 0 30.681 10.227 35.795 25.568 10.227 15.34 10.227 30.682 0 40.909z"  horiz-adv-x="1027" />

    
    <glyph glyph-name="checkbox2" unicode="&#58982;" d="M0 768.384C0 838.848 57.28 896 127.616 896h768.768C966.848 896 1024 838.72 1024 768.384v-768.768A127.68 127.68 0 0 0 896.384-128H127.616A127.68 127.68 0 0 0 0-0.384V768.384z m382.208-579.392L238.848 348.16a35.968 35.968 0 1 1-53.44-48.192l169.6-188.352c9.536-10.624 24-14.208 36.8-10.432a35.84 35.84 0 0 1 17.984 10.816l429.376 476.8a35.968 35.968 0 1 1-53.568 48.192l-403.392-448z"  horiz-adv-x="1024" />

    


  </font>
</defs>
</svg>
